<svg width="79" height="79" viewBox="0 0 79 79" fill="none" xmlns="http://www.w3.org/2000/svg">
<circle cx="39.5" cy="39.5" r="39.5" fill="#F3C700"/>
<g clip-path="url(#clip0)">
<path d="M49.3696 46.3079L40 55.6243L30.6304 46.3079C23.608 46.6106 18 52.3235 18 59.3743V60.3118C18 62.8997 20.1116 64.9993 22.7143 64.9993H57.2857C59.8884 64.9993 62 62.8997 62 60.3118V59.3743C62 52.3235 56.392 46.6106 49.3696 46.3079V46.3079ZM19.3357 22.7922L19.9643 22.9387V28.6418C19.2768 29.052 18.7857 29.7649 18.7857 30.6243C18.7857 31.4446 19.2375 32.1282 19.8759 32.5481L18.3437 38.6321C18.1768 39.3059 18.55 39.9993 19.0902 39.9993H23.1955C23.7357 39.9993 24.1089 39.3059 23.942 38.6321L22.4098 32.5481C23.0482 32.1282 23.5 31.4446 23.5 30.6243C23.5 29.7649 23.0089 29.052 22.3214 28.6418V23.5051L28.8036 25.0579C27.9589 26.7375 27.4286 28.6125 27.4286 30.6243C27.4286 37.5286 33.0562 43.1243 40 43.1243C46.9437 43.1243 52.5714 37.5286 52.5714 30.6243C52.5714 28.6125 52.0509 26.7375 51.1964 25.0579L60.6545 22.7922C62.442 22.3625 62.442 20.1458 60.6545 19.7161L41.9545 15.2239C40.6777 14.9211 39.3321 14.9211 38.0554 15.2239L19.3357 19.7063C17.558 20.136 17.558 22.3625 19.3357 22.7922V22.7922Z" fill="#FFE367"/>
</g>
<defs>
<clipPath id="clip0">
<rect width="44" height="50" fill="white" transform="translate(18 15)"/>
</clipPath>
</defs>
</svg>
