<svg width="50" height="46" viewBox="0 0 50 46" fill="none" xmlns="http://www.w3.org/2000/svg">
<g filter="url(#filter0_d)">
<path d="M46.5133 10.4799C46.0947 9.92188 45.5088 9.53125 44.867 9.28013C44.895 9.78236 44.895 10.3404 44.7275 10.8705L36.357 38.4096C36.0501 39.4141 34.8503 40 33.8179 40H8.06459C6.52999 40 4.60477 39.6652 4.04674 38.0469C3.82352 37.433 3.85142 37.1819 4.07464 36.8471C4.32575 36.5123 4.77218 36.4286 5.13491 36.4286H29.3816C32.9251 36.4286 33.6505 35.4799 34.9619 31.183L42.607 5.90402C42.9976 4.59263 42.8302 3.28125 42.1048 2.27678C41.4072 1.30022 40.2354 0.714284 38.924 0.714284H17.6907C17.2164 0.714284 16.742 0.853794 16.2677 0.965401L16.2956 0.881695C12.7521 -0.122768 12.5289 3.69978 11.357 5.42968C10.9106 6.07143 10.2409 6.62946 10.1293 7.1596C10.0456 7.66183 10.3246 8.13616 10.2688 8.61049C10.1014 10.0893 8.98535 12.74 8.31571 13.6607C7.89718 14.2188 7.28334 14.4978 7.08803 15.1395C6.92062 15.5859 7.19964 16.2277 7.14383 16.8136C7.00432 18.125 6.02776 20.6083 5.27441 21.8917C4.9954 22.394 4.46526 22.7846 4.32575 23.3147C4.18624 23.7891 4.46526 24.4029 4.32575 24.933C4.01883 26.3839 3.07017 28.644 2.23312 30.0391C1.78669 30.7924 1.20075 31.2667 1.08915 31.9364C1.03334 32.2712 1.28446 32.6339 1.25656 33.0804C1.22866 33.75 1.11705 34.308 1.06124 34.8661C0.670619 35.9263 0.670619 37.154 1.11705 38.4096C2.14941 41.3114 5.19071 43.5714 8.03669 43.5714H33.79C36.1896 43.5714 38.645 41.7299 39.3425 39.3583L47.0155 14.0792C47.4061 12.7958 47.2108 11.4844 46.5133 10.4799ZM16.8258 10.5357L17.4117 8.75C17.5791 8.24777 18.1092 7.85714 18.5836 7.85714H35.5479C36.0501 7.85714 36.3291 8.24777 36.1617 8.75L35.5758 10.5357C35.4083 11.0379 34.8782 11.4286 34.4039 11.4286H17.4396C16.9374 11.4286 16.6583 11.0379 16.8258 10.5357ZM14.5099 17.6786L15.0958 15.8929C15.2633 15.3906 15.7934 15 16.2677 15H33.232C33.7342 15 34.0133 15.3906 33.8458 15.8929L33.2599 17.6786C33.0925 18.1808 32.5624 18.5714 32.088 18.5714H15.1237C14.6215 18.5714 14.3425 18.1808 14.5099 17.6786Z" fill="#F3C700"/>
</g>
<defs>
<filter id="filter0_d" x="0.774902" y="0.714233" width="48.4391" height="44.8571" filterUnits="userSpaceOnUse" color-interpolation-filters="sRGB">
<feFlood flood-opacity="0" result="BackgroundImageFix"/>
<feColorMatrix in="SourceAlpha" type="matrix" values="0 0 0 0 0 0 0 0 0 0 0 0 0 0 0 0 0 0 127 0"/>
<feOffset dx="2" dy="2"/>
<feColorMatrix type="matrix" values="0 0 0 0 0.580392 0 0 0 0 0.270588 0 0 0 0 0.792157 0 0 0 1 0"/>
<feBlend mode="normal" in2="BackgroundImageFix" result="effect1_dropShadow"/>
<feBlend mode="normal" in="SourceGraphic" in2="effect1_dropShadow" result="shape"/>
</filter>
</defs>
</svg>
