<svg width="22" height="22" viewBox="0 0 22 22" fill="none" xmlns="http://www.w3.org/2000/svg">
<g clip-path="url(#clip0)">
<path d="M20.8165 8.34264C20.9707 8.22009 21.2 8.33473 21.2 8.52844V16.6126C21.2 17.6602 20.35 18.5101 19.3025 18.5101H2.85746C1.80988 18.5101 0.959961 17.6602 0.959961 16.6126V8.53239C0.959961 8.33473 1.18529 8.22405 1.34341 8.34659C2.22891 9.03444 3.40299 9.90808 7.43518 12.8373C8.26929 13.4461 9.6766 14.7269 11.08 14.719C12.4912 14.7309 13.9262 13.4224 14.7287 12.8373C18.7609 9.90808 19.931 9.03048 20.8165 8.34264ZM11.08 13.4501C11.9971 13.4659 13.3174 12.2958 13.9816 11.8135C19.2274 8.00663 19.6266 7.67456 20.8363 6.72581C21.0656 6.54792 21.2 6.2712 21.2 5.97867V5.22758C21.2 4.18 20.35 3.33008 19.3025 3.33008H2.85746C1.80988 3.33008 0.959961 4.18 0.959961 5.22758V5.97867C0.959961 6.2712 1.09437 6.54397 1.32365 6.72581C2.5333 7.67061 2.93257 8.00663 8.17837 11.8135C8.84249 12.2958 10.1628 13.4659 11.08 13.4501Z" fill="white"/>
</g>
<defs>
<clipPath id="clip0">
<rect width="20.24" height="20.24" fill="white" transform="translate(0.959961 0.800049)"/>
</clipPath>
</defs>
</svg>
