<svg width="21" height="22" viewBox="0 0 21 22" fill="none" xmlns="http://www.w3.org/2000/svg">
<g clip-path="url(#clip0)">
<path d="M7.30679 16.6697C7.30679 16.7488 7.21548 16.812 7.10034 16.812C6.96931 16.8239 6.878 16.7606 6.878 16.6697C6.878 16.5907 6.96931 16.5274 7.08445 16.5274C7.20356 16.5155 7.30679 16.5788 7.30679 16.6697ZM6.07201 16.4918C6.04422 16.5709 6.12363 16.6618 6.24274 16.6855C6.34597 16.7251 6.46508 16.6855 6.4889 16.6065C6.51272 16.5274 6.43729 16.4365 6.31817 16.4009C6.21495 16.3732 6.0998 16.4128 6.07201 16.4918ZM7.82691 16.4246C7.71177 16.4523 7.63236 16.5274 7.64427 16.6183C7.65618 16.6974 7.75941 16.7488 7.87853 16.7211C7.99367 16.6934 8.07307 16.6183 8.06116 16.5393C8.04925 16.4642 7.94205 16.4128 7.82691 16.4246ZM10.4394 1.27625C4.93252 1.27625 0.719971 5.43889 0.719971 10.9219C0.719971 15.3059 3.49128 19.0574 7.44973 20.3777C7.95793 20.4687 8.1366 20.1564 8.1366 19.8994C8.1366 19.6543 8.12469 18.3024 8.12469 17.4722C8.12469 17.4722 5.34544 18.0652 4.76179 16.2942C4.76179 16.2942 4.30917 15.1438 3.65804 14.8473C3.65804 14.8473 2.74882 14.2267 3.72156 14.2385C3.72156 14.2385 4.71018 14.3176 5.25412 15.2584C6.12363 16.7844 7.58075 16.3456 8.14851 16.0847C8.23983 15.4522 8.4979 15.0134 8.78377 14.7524C6.56434 14.5074 4.32506 14.1872 4.32506 10.3842C4.32506 9.29714 4.6268 8.7516 5.26206 8.05585C5.15883 7.7989 4.82135 6.73946 5.36529 5.37168C6.19509 5.11473 8.10484 6.43903 8.10484 6.43903C8.89891 6.21765 9.75253 6.10301 10.5982 6.10301C11.4439 6.10301 12.2975 6.21765 13.0916 6.43903C13.0916 6.43903 15.0013 5.11078 15.8312 5.37168C16.3751 6.74342 16.0376 7.7989 15.9344 8.05585C16.5696 8.75556 16.9587 9.30109 16.9587 10.3842C16.9587 14.199 14.6202 14.5034 12.4008 14.7524C12.766 15.0647 13.0757 15.6577 13.0757 16.5867C13.0757 17.9189 13.0638 19.5674 13.0638 19.8915C13.0638 20.1485 13.2464 20.4608 13.7507 20.3698C17.721 19.0574 20.4129 15.3059 20.4129 10.9219C20.4129 5.43889 15.9463 1.27625 10.4394 1.27625ZM4.57916 14.9106C4.52754 14.9501 4.53945 15.041 4.60695 15.1161C4.67048 15.1794 4.76179 15.2071 4.81341 15.1557C4.86502 15.1161 4.85311 15.0252 4.78562 14.9501C4.72209 14.8869 4.63077 14.8592 4.57916 14.9106ZM4.15036 14.5904C4.12257 14.6418 4.16227 14.705 4.24168 14.7445C4.3052 14.7841 4.38461 14.7722 4.4124 14.7169C4.4402 14.6655 4.40049 14.6022 4.32108 14.5627C4.24168 14.539 4.17815 14.5508 4.15036 14.5904ZM5.43676 15.9977C5.37323 16.0491 5.39705 16.1677 5.48837 16.2428C5.57969 16.3337 5.69483 16.3456 5.74644 16.2823C5.79806 16.2309 5.77424 16.1123 5.69483 16.0372C5.60748 15.9463 5.48837 15.9344 5.43676 15.9977ZM4.98413 15.4166C4.92061 15.4561 4.92061 15.5589 4.98413 15.6498C5.04766 15.7407 5.15486 15.7803 5.20647 15.7407C5.27 15.6893 5.27 15.5866 5.20647 15.4956C5.15089 15.4047 5.04766 15.3652 4.98413 15.4166Z" fill="white"/>
</g>
<defs>
<clipPath id="clip0">
<rect width="19.693" height="20.24" fill="white" transform="translate(0.719971 0.959961)"/>
</clipPath>
</defs>
</svg>
