<?xml version="1.0" encoding="utf-8"?>
<!-- Generator: Adobe Illustrator 23.0.6, SVG Export Plug-In . SVG Version: 6.00 Build 0)  -->
<svg version="1.1" id="Operation_Spark_Logo" xmlns="http://www.w3.org/2000/svg" xmlns:xlink="http://www.w3.org/1999/xlink"
	 x="0px" y="0px" viewBox="0 0 219.4 264.7" style="enable-background:new 0 0 219.4 264.7;" xml:space="preserve">
<style type="text/css">
	.st0{fill:#F2C717;}
	.st1{fill:#2E1C36;}
	.st2{fill:#FFFFFF;}
	.st3{fill:#F0C419;}
</style>
<g>
	<g>
		<polyline class="st0" points="30.3,103.7 34.1,112.3 25.3,106.5 23.1,116.8 19.3,107 11.5,114 14.3,103.9 3.8,105 12,98.4 
			2.9,93.1 13.4,92.6 9.1,83 17.9,88.7 20.1,78.4 23.9,88.3 31.7,81.2 29.2,90.3 		"/>
		<polyline class="st0" points="192.8,90.3 190.4,81.2 198.2,88.3 201.9,78.4 204.1,88.7 212.9,83 208.7,92.6 219.2,93.1 
			210.1,98.4 218.3,105 207.8,103.9 210.6,114 202.7,107 199,116.8 196.8,106.5 188,112.3 191.8,103.7 		"/>
		<path class="st0" d="M139.3,260.6v-0.8c0-1.2,0.9-2.2,2.2-2.3l1.1-0.1l0.1-1.1c1.2-17.6-3.2-32.2-13.9-46l-0.6-0.7l-0.9,0.2
			c-4.9,1.6-10.5,2.3-16.6,2.3c-6.2,0-11.7-0.8-16.6-2.3l-0.9-0.3l-0.6,0.7c-10.8,13.9-15.2,28.5-13.9,46.1l0.1,1.1l1.1,0.1
			c1.2,0.1,2.2,1.1,2.2,2.3v0.8H39.4v-0.8c0-1.3,1-2.3,2.3-2.3h17.9l-0.1-1.4c-1.2-21.3,4.4-39.9,17.3-56.6l0.6-0.8l-0.6-0.8
			c-4.4-5.7-7.3-13.2-8.7-22.4l-0.2-1.1h-1.1c-18.1,0-35-10.4-43.3-26.5l4.1-1.4l-0.4-2.5c-5.1-0.3-9.6-3.6-11.3-8.4
			c-1.9-5.1-0.3-10.8,3.8-14.2l1.4,3.9c-2.1,2.5-2.8,5.9-1.6,9c1.3,3.5,4.7,5.9,8.4,5.9c1.1,0,2.1-0.2,3.1-0.6
			c2.3-0.8,4-2.5,5.1-4.7c1-2.2,1.1-4.6,0.3-6.9c-1.1-3.1-3.9-5.3-7.1-5.8l-1.4-3.9c0,0,0.1,0,0.1,0c5.3,0,10.2,3.4,12,8.4
			c1.8,4.9,0.4,10.6-3.6,14.1l1.3,2.2l4.1-1.4c5.3,8.3,14.6,13.5,24.4,13.7l1,0l0.3-1c0.7-2.7,2.3-4.9,4.9-6.6l2.6-1.7l-3-0.6
			c-5.7-1.2-7-2.3-7.3-2.6c0.3-0.3,1.9-1.7,9.8-3.1l4.9-0.9l-4.7-1.7c-5-1.8-9-4-12.1-6.9c-4.8-4.3-7.8-10.1-9.2-17.8l-0.2-1.1h-1.9
			c-1.9,0-3.5-1.3-4-3.1l-0.3-1h-1.3c-2.2,0-4.1-1.6-4.8-3.9l-0.2-0.7l-12.9-3.1l-0.5,0.9c-1.1,2.1-3.3,3.4-5.7,3.4
			c-3.5,0-6.4-2.9-6.4-6.4s2.9-6.4,6.4-6.4c2.4,0,4.5,1.3,5.7,3.4l0.5,0.9l12.8-3.1l0.2-0.7c0.7-2.3,2.6-3.9,4.8-3.9h1.4l0.3-1
			c0.5-1.8,2.1-3.1,4-3.1H54l0.2-1c2.9-13,8.5-27.6,15.4-40.2C77,29.3,92,7.1,110.7,7.1s33.7,22.3,41,35.6
			c6.9,12.5,12.5,27.2,15.4,40.2l0.2,1h4c1.9,0,3.5,1.3,4,3.1l0.3,1h1.4c2.2,0,4.1,1.6,4.8,3.9l0.2,0.7l12.8,3.1l0.5-0.9
			c1.1-2.1,3.3-3.4,5.7-3.4c3.5,0,6.4,2.9,6.4,6.4s-2.9,6.4-6.4,6.4c-2.4,0-4.5-1.3-5.7-3.4l-0.5-0.9l-12.9,3.1l-0.2,0.7
			c-0.7,2.3-2.6,3.9-4.8,3.9h-1.3l-0.3,1c-0.5,1.8-2.1,3.1-4,3.1h-3.1l-0.2,1.1c-2.3,12.7-8.9,20.3-21.2,24.7l-4.7,1.7l4.9,0.9
			c7.7,1.4,9.3,2.7,9.6,3.1c-0.3,0.3-1.5,1.4-7.3,2.6l-3,0.6l2.6,1.7c2.6,1.7,4.2,3.9,4.9,6.7l0.3,1l1,0c10,0,19.5-5.3,25-13.7
			l4.1,1.4l1.3-2.2c-4-3.5-5.4-9.1-3.6-14.1c1.8-5,6.7-8.4,12-8.4c0,0,0.1,0,0.1,0l-1.4,3.9c-3.2,0.5-6,2.7-7.1,5.8
			c-1.7,4.7,0.7,9.8,5.3,11.5c1,0.4,2,0.6,3.1,0.6c3.8,0,7.1-2.4,8.4-5.9c1.1-3.1,0.5-6.5-1.6-9l1.4-3.9c4.1,3.4,5.6,9.1,3.8,14.2
			c-1.8,4.8-6.2,8.1-11.3,8.4l-0.4,2.5l4.1,1.4c-8.2,16.1-25.2,26.5-43.3,26.5h-1.7l-0.2,1.1c-1.4,9.1-4.3,16.7-8.7,22.4l-0.6,0.8
			l0.6,0.8c12.8,16.8,18.5,35.3,17.3,56.6l-0.1,1.4h17.9c1.3,0,2.3,1,2.3,2.3v0.8H139.3z"/>
		<path class="st0" d="M129.9,162.2l-13.8,9c-0.4,0.3-0.3,0.9,0.2,1l4.6,0.9l-5.5,6.2c-0.5,0.6,0.2,1.5,0.9,1l12.8-8.2
			c0.4-0.2,0.3-0.8-0.1-0.9l-3.6-1.6l5.7-5.8C132,162.8,130.9,161.5,129.9,162.2z"/>
		<path class="st0" d="M25.5,96.4c-0.5,1.7-2,2.9-3.9,2.9c-1.8,0-3.4-1.2-3.9-2.9c-0.1,0.4-0.2,0.8-0.2,1.2c0,2.2,1.8,4.1,4.1,4.1
			c2.2,0,4.1-1.8,4.1-4.1C25.7,97.2,25.6,96.8,25.5,96.4z"/>
		<path class="st0" d="M200.9,101.7c2.2,0,4.1-1.8,4.1-4.1c0-0.4-0.1-0.8-0.2-1.2c-0.5,1.7-2,2.9-3.9,2.9c-1.8,0-3.4-1.2-3.9-2.9
			c-0.1,0.4-0.2,0.8-0.2,1.2C196.8,99.9,198.6,101.7,200.9,101.7z"/>
		<path class="st0" d="M104.3,25.9c1.3,0,2.3-1,2.3-2.3c0-1.3-1-2.3-2.3-2.3c-1.3,0-2.3,1-2.3,2.3C102,24.9,103,25.9,104.3,25.9z
			 M104.3,22.2c0.6,0,1.2,0.5,1.2,1.2s-0.5,1.2-1.2,1.2c-0.6,0-1.2-0.5-1.2-1.2S103.6,22.2,104.3,22.2z"/>
		<path class="st0" d="M104.3,42c1.3,0,2.3-1,2.3-2.3c0-1.3-1-2.3-2.3-2.3c-1.3,0-2.3,1-2.3,2.3C102,41,103,42,104.3,42z
			 M104.3,38.3c0.6,0,1.2,0.5,1.2,1.2s-0.5,1.2-1.2,1.2c-0.6,0-1.2-0.5-1.2-1.2S103.6,38.3,104.3,38.3z"/>
		<path class="st0" d="M117.1,34c1.3,0,2.3-1,2.3-2.3c0-1.3-1-2.3-2.3-2.3c-1.3,0-2.3,1-2.3,2.3C114.8,32.9,115.8,34,117.1,34z
			 M117.1,30.2c0.6,0,1.2,0.5,1.2,1.2c0,0.6-0.5,1.2-1.2,1.2c-0.6,0-1.2-0.5-1.2-1.2C115.9,30.8,116.4,30.2,117.1,30.2z"/>
		<path class="st0" d="M104.3,58c1.3,0,2.3-1,2.3-2.3c0-1.3-1-2.3-2.3-2.3c-1.3,0-2.3,1-2.3,2.3C102,57,103,58,104.3,58z
			 M104.3,54.3c0.6,0,1.2,0.5,1.2,1.2s-0.5,1.2-1.2,1.2c-0.6,0-1.2-0.5-1.2-1.2S103.6,54.3,104.3,54.3z"/>
		<path class="st0" d="M117.1,50c1.3,0,2.3-1,2.3-2.3c0-1.3-1-2.3-2.3-2.3c-1.3,0-2.3,1-2.3,2.3C114.8,49,115.8,50,117.1,50z
			 M117.1,46.3c0.6,0,1.2,0.5,1.2,1.2s-0.5,1.2-1.2,1.2c-0.6,0-1.2-0.5-1.2-1.2S116.4,46.3,117.1,46.3z"/>
		<path class="st0" d="M104.3,74c1.3,0,2.3-1,2.3-2.3c0-1.3-1-2.3-2.3-2.3c-1.3,0-2.3,1-2.3,2.3C102,73,103,74,104.3,74z
			 M104.3,70.3c0.6,0,1.2,0.5,1.2,1.2c0,0.6-0.5,1.2-1.2,1.2c-0.6,0-1.2-0.5-1.2-1.2C103.1,70.8,103.6,70.3,104.3,70.3z"/>
		<path class="st0" d="M117.1,66c1.3,0,2.3-1,2.3-2.3c0-1.3-1-2.3-2.3-2.3c-1.3,0-2.3,1-2.3,2.3C114.8,65,115.8,66,117.1,66z
			 M117.1,62.3c0.6,0,1.2,0.5,1.2,1.2s-0.5,1.2-1.2,1.2c-0.6,0-1.2-0.5-1.2-1.2S116.4,62.3,117.1,62.3z"/>
		<path class="st0" d="M104.3,90.1c1.3,0,2.3-1,2.3-2.3c0-1.3-1-2.3-2.3-2.3c-1.3,0-2.3,1-2.3,2.3C102,89.1,103,90.1,104.3,90.1z
			 M104.3,86.4c0.6,0,1.2,0.5,1.2,1.2c0,0.6-0.5,1.2-1.2,1.2c-0.6,0-1.2-0.5-1.2-1.2C103.1,86.9,103.6,86.4,104.3,86.4z"/>
		<path class="st0" d="M117.1,82.1c1.3,0,2.3-1,2.3-2.3c0-1.3-1-2.3-2.3-2.3c-1.3,0-2.3,1-2.3,2.3C114.8,81.1,115.8,82.1,117.1,82.1
			z M117.1,78.3c0.6,0,1.2,0.5,1.2,1.2c0,0.6-0.5,1.2-1.2,1.2c-0.6,0-1.2-0.5-1.2-1.2C115.9,78.9,116.4,78.3,117.1,78.3z"/>
		<path class="st0" d="M104.3,106.1c1.3,0,2.3-1,2.3-2.3c0-1.3-1-2.3-2.3-2.3c-1.3,0-2.3,1-2.3,2.3C102,105.1,103,106.1,104.3,106.1
			z M104.3,102.4c0.6,0,1.2,0.5,1.2,1.2c0,0.6-0.5,1.2-1.2,1.2c-0.6,0-1.2-0.5-1.2-1.2C103.1,102.9,103.6,102.4,104.3,102.4z"/>
		<path class="st0" d="M117.1,93.6c-1.3,0-2.3,1-2.3,2.3c0,1.3,1,2.3,2.3,2.3c1.3,0,2.3-1,2.3-2.3C119.3,94.6,118.3,93.6,117.1,93.6
			z M117.1,96.7c-0.6,0-1.2-0.5-1.2-1.2s0.5-1.2,1.2-1.2c0.6,0,1.2,0.5,1.2,1.2S117.7,96.7,117.1,96.7z"/>
		<path class="st0" d="M104.3,133.7c-1.3,0-2.3,1-2.3,2.3c0,1.3,1,2.3,2.3,2.3c1.3,0,2.3-1,2.3-2.3
			C106.5,134.7,105.5,133.7,104.3,133.7z M104.3,136.8c-0.6,0-1.2-0.5-1.2-1.2c0-0.6,0.5-1.2,1.2-1.2c0.6,0,1.2,0.5,1.2,1.2
			C105.4,136.3,104.9,136.8,104.3,136.8z"/>
		<path class="st0" d="M117.1,125.6c-1.3,0-2.3,1-2.3,2.3c0,1.3,1,2.3,2.3,2.3c1.3,0,2.3-1,2.3-2.3
			C119.3,126.7,118.3,125.6,117.1,125.6z M117.1,128.8c-0.6,0-1.2-0.5-1.2-1.2s0.5-1.2,1.2-1.2c0.6,0,1.2,0.5,1.2,1.2
			S117.7,128.8,117.1,128.8z"/>
		<path class="st0" d="M94.5,96.4V68.6c0-6.7-4-8.4-8.3-8.4C82,60.2,78,62,78,68.6v27.8c0,6.7,4,8.4,8.3,8.4
			C90.5,104.8,94.5,103.1,94.5,96.4z M89.5,96.4c0,3.2-1.3,4.4-3.3,4.4c-2,0-3.3-1.2-3.3-4.4V68.6c0-3.2,1.3-4.4,3.3-4.4
			c2,0,3.3,1.2,3.3,4.4V96.4z"/>
		<path class="st0" d="M135.1,104.8c2,0,3.3-1.2,3.3-4.4V64.6c0-3.2-1.3-4.4-3.3-4.4c-2,0-3.3,1.2-3.3,4.4v35.8
			C131.8,103.6,133.1,104.8,135.1,104.8z"/>
		<path class="st0" d="M79.4,164.4c1.3,0,2.3-1,2.3-2.3c0-1.3-1-2.3-2.3-2.3c-1.3,0-2.3,1-2.3,2.3C77.2,163.4,78.2,164.4,79.4,164.4
			z M79.4,160.7c0.6,0,1.2,0.5,1.2,1.2s-0.5,1.2-1.2,1.2c-0.6,0-1.2-0.5-1.2-1.2S78.8,160.7,79.4,160.7z"/>
		<path class="st0" d="M92.9,170.1c0-1.3-1-2.3-2.3-2.3c-1.3,0-2.3,1-2.3,2.3c0,1.3,1,2.3,2.3,2.3C91.9,172.4,92.9,171.4,92.9,170.1
			z M89.5,169.8c0-0.6,0.5-1.2,1.2-1.2c0.6,0,1.2,0.5,1.2,1.2c0,0.6-0.5,1.2-1.2,1.2C90,171,89.5,170.5,89.5,169.8z"/>
		<path class="st0" d="M92.3,157.2c1.3,0,2.3-1,2.3-2.3c0-1.3-1-2.3-2.3-2.3c-1.3,0-2.3,1-2.3,2.3C90,156.2,91,157.2,92.3,157.2z
			 M92.3,153.4c0.6,0,1.2,0.5,1.2,1.2s-0.5,1.2-1.2,1.2c-0.6,0-1.2-0.5-1.2-1.2S91.6,153.4,92.3,153.4z"/>
		<path class="st0" d="M80.9,178.2c0-1.3-1-2.3-2.3-2.3c-1.3,0-2.3,1-2.3,2.3c0,1.3,1,2.3,2.3,2.3C79.9,180.4,80.9,179.4,80.9,178.2
			z M78.6,179c-0.6,0-1.2-0.5-1.2-1.2s0.5-1.2,1.2-1.2c0.6,0,1.2,0.5,1.2,1.2S79.3,179,78.6,179z"/>
		<path class="st0" d="M93.7,186.2c0-1.3-1-2.3-2.3-2.3c-1.3,0-2.3,1-2.3,2.3c0,1.3,1,2.3,2.3,2.3C92.7,188.4,93.7,187.4,93.7,186.2
			z M90.3,185.9c0-0.6,0.5-1.2,1.2-1.2c0.6,0,1.2,0.5,1.2,1.2c0,0.6-0.5,1.2-1.2,1.2C90.8,187,90.3,186.5,90.3,185.9z"/>
		<path class="st0" d="M84.1,194.2c0-1.3-1-2.3-2.3-2.3c-1.3,0-2.3,1-2.3,2.3c0,1.3,1,2.3,2.3,2.3C83.1,196.5,84.1,195.4,84.1,194.2
			z M80.7,193.9c0-0.6,0.5-1.2,1.2-1.2c0.6,0,1.2,0.5,1.2,1.2s-0.5,1.2-1.2,1.2C81.2,195.1,80.7,194.5,80.7,193.9z"/>
		<path class="st0" d="M93.1,199.9c-1.3,0-2.3,1-2.3,2.3c0,1.3,1,2.3,2.3,2.3c1.3,0,2.3-1,2.3-2.3C95.3,201,94.3,199.9,93.1,199.9z
			 M93.1,203.1c-0.6,0-1.2-0.5-1.2-1.2c0-0.6,0.5-1.2,1.2-1.2c0.6,0,1.2,0.5,1.2,1.2C94.2,202.6,93.7,203.1,93.1,203.1z"/>
		<path class="st0" d="M201.4,119.4l-2.3,6.3c2.2,2.1,3,5.3,1.9,8.2c-1.5,4-5.9,6-9.9,4.6s-6-5.9-4.6-9.9c1.1-3,3.8-4.9,6.8-5
			l2.3-6.3c-6.4-0.9-12.8,2.8-15.1,9.1c-2.1,5.6-0.3,11.8,4,15.5l-5.1-1.8l-0.5,0.8c-5.2,8.1-14.3,13.2-23.9,13.2
			c-0.8-3.2-2.8-5.6-5.5-7.4c5.3-1.1,8.4-2.5,8.4-3.9c0-1.7-4-3.2-10.7-4.4c13.8-4.9,19.9-13.6,22.1-25.7h2c2.5,0,4.7-1.7,5.3-4.1
			h0.3c2.7,0,5.2-2,6-4.8l11.2-2.7c1.3,2.5,3.9,4.1,6.8,4.1c4.2,0,7.7-3.4,7.7-7.7s-3.4-7.7-7.7-7.7c-3,0-5.5,1.7-6.8,4.1L183,91.4
			c-0.8-2.9-3.3-4.8-6-4.8h-0.4c-0.6-2.3-2.8-4.1-5.3-4.1h-3c-2.9-12.7-8.5-27.6-15.6-40.5C145.4,28.5,130,5.8,110.7,5.8
			C91.3,5.8,76,28.5,68.6,42C61.5,54.9,55.9,69.8,53,82.5h-1.8c-2.5,0-4.7,1.7-5.3,4.1h-0.4c-2.8,0-5.2,2-6,4.8l-11.1,2.6
			c-1.3-2.5-3.9-4.1-6.8-4.1c-4.2,0-7.7,3.4-7.7,7.7s3.4,7.7,7.7,7.7c3,0,5.5-1.7,6.8-4.1l11.2,2.7c0.9,2.9,3.3,4.8,6,4.8h0.3
			c0.6,2.3,2.8,4.1,5.3,4.1H52c1.3,6.9,4,13.5,9.6,18.5c3.3,3,7.4,5.3,12.6,7.2c-6.8,1.2-10.9,2.7-10.9,4.4c0,1.4,3.1,2.8,8.4,3.9
			c-2.7,1.8-4.6,4.2-5.4,7.4c-9.4-0.2-18.3-5.2-23.4-13.2l-0.5-0.8l-5.1,1.8c4.3-3.7,6.1-9.9,4-15.5c-2.3-6.3-8.7-10-15.1-9.1
			l2.3,6.3c3,0.2,5.7,2,6.8,5c1.5,4-0.6,8.4-4.6,9.9s-8.4-0.6-9.9-4.6c-1.1-3-0.2-6.2,1.9-8.2l-2.3-6.3c-5.5,3.5-8,10.4-5.6,16.7
			c2,5.4,7,8.9,12.5,9.2l-5.6,1.9l0.6,1.2c8.4,16.6,25.9,27.3,44.5,27.3h0c1.2,7.7,3.7,16.1,9,23c-13,17-18.8,35.8-17.5,57.5H41.7
			c-2,0-3.6,1.6-3.6,3.6v2.1h45.2v-2.1c0-1.9-1.5-3.5-3.4-3.6c-1.2-17.2,3.1-31.6,13.6-45.1l0.1-0.1c4.8,1.5,10.4,2.4,17,2.4
			c6.6,0,12.2-0.9,17-2.4l0.1,0.1c10.5,13.5,14.8,27.9,13.6,45.1c-1.9,0.1-3.4,1.7-3.4,3.6v2.1h45.2v-2.1c0-2-1.6-3.6-3.6-3.6h-16.5
			c1.2-21.7-4.5-40.5-17.5-57.5c5.3-6.9,7.8-15.2,9-23h0.5c18.6,0,36-10.7,44.5-27.3l0.6-1.2l-5.6-1.9c5.4-0.3,10.5-3.8,12.5-9.2
			C209.4,129.8,206.9,122.9,201.4,119.4z M31.4,140.3c0.8-0.3,1.6,0.1,1.9,0.9c0.3,0.8-0.1,1.6-0.9,1.9c-0.8,0.3-1.6-0.1-1.9-0.9
			C30.2,141.4,30.6,140.6,31.4,140.3z M180.5,143l9.1,3.1c-0.6,1.1-1.1,2.2-1.8,3.2l-9-4.1C179.4,144.5,180,143.8,180.5,143z
			 M184,154.4l-8.2-5.9c0.7-0.6,1.3-1.3,1.9-1.9l9.2,4.2C186,152,185,153.2,184,154.4z M190.8,152.5l2.7,1.2c-1.2,1.7-2.5,3.3-4,4.7
			l-2.1-1.6C188.7,155.5,189.8,154,190.8,152.5z M165.7,165.1c-1.5,0.4-3,0.8-4.5,1.1l-0.5-10.2c0.9-0.2,1.7-0.4,2.6-0.6
			L165.7,165.1z M164.8,154.9c0.8-0.3,1.5-0.6,2.2-0.9l5,8.7c-1.5,0.7-3.1,1.3-4.8,1.8L164.8,154.9z M166.8,169.2l0.6,2.5
			c-1.9,0.5-3.9,0.9-5.9,1.2l-0.1-2.5C163.3,170.1,165.1,169.7,166.8,169.2z M168.3,168.8c2-0.6,4-1.4,5.9-2.2l1.2,2.1
			c-2.1,1-4.3,1.8-6.5,2.5L168.3,168.8z M175.6,165.8c1.9-1,3.7-2,5.4-3.2c0.6,0.6,1.2,1.2,1.7,1.8c-1.9,1.3-3.9,2.6-5.9,3.6
			L175.6,165.8z M173.5,162.1l-5-8.7c0.7-0.4,1.4-0.7,2.1-1.1c1.3,1.3,4.4,4.3,7.3,7.3C176.5,160.4,175,161.3,173.5,162.1z
			 M177.9,157.3c-1.7-1.7-3.5-3.5-4.8-4.8c-0.5-0.5-0.9-0.9-1.2-1.2c0.9-0.6,1.7-1.2,2.5-1.8l8.3,6c-1.1,1.1-2.3,2.1-3.6,3
			L177.9,157.3z M159.1,156.2l0.5,10.3c-1.1,0.2-2.2,0.4-3.4,0.5v-10.5C157.2,156.5,158.2,156.4,159.1,156.2z M126.6,115.4
			c1.1,0,2,0.9,2,2c0,1.1-0.9,2-2,2H94.8c-1.1,0-2-0.9-2-2c0-1.1,0.9-2,2-2H126.6z M200.9,92.3c2.9,0,5.3,2.4,5.3,5.3
			c0,2.9-2.4,5.3-5.3,5.3c-2.3,0-4.2-1.5-5-3.5l0,0c-0.1-0.3-0.2-0.6-0.2-0.8c0,0,0-0.1,0-0.1c0-0.3-0.1-0.6-0.1-0.8s0-0.6,0.1-0.8
			c0,0,0-0.1,0-0.1c0.1-0.3,0.1-0.6,0.2-0.8l0,0C196.7,93.8,198.6,92.3,200.9,92.3z M193.3,96.4c0,0.1,0,0.1,0,0.2
			c0,0.1,0,0.2,0,0.3c0,0.2,0,0.5,0,0.7s0,0.5,0,0.7c0,0.1,0,0.2,0,0.3c0,0.1,0,0.1,0,0.2l-9.9,2.4c0,0,0-0.1,0-0.1
			c0.1-0.6,0.2-1.1,0.2-1.7c0,0,0-0.1,0-0.1c0.2-1.8,0.1-3.6-0.2-5.3c0,0,0,0,0,0L193.3,96.4z M180.7,92.3l0.1,0.5c0,0,0,0,0,0
			c0.7,3.2,0.7,6.5-0.1,9.8c0,0,0,0,0,0l-0.1,0.4c-0.5,1.9-2.1,3.3-3.8,3.3h-0.1V89h0.2C178.7,89,180.2,90.3,180.7,92.3z M168,98.5
			c0,27.9-8.8,42.1-56.5,42.2v-18.9h15.1c2.4,0,4.4-2,4.4-4.4s-2-4.4-4.4-4.4h-15.1V8.2C140.8,9.3,168,70.5,168,98.5z M21.6,102.9
			c-2.9,0-5.3-2.4-5.3-5.3c0-2.9,2.4-5.3,5.3-5.3c2.3,0,4.3,1.5,5,3.5l0,0c0.1,0.3,0.2,0.6,0.2,0.8c0,0,0,0.1,0,0.1
			c0,0.3,0.1,0.6,0.1,0.8c0,0.3,0,0.6-0.1,0.8c0,0,0,0.1,0,0.1c-0.1,0.3-0.1,0.6-0.2,0.8l0,0C25.9,101.4,23.9,102.9,21.6,102.9z
			 M29.2,98.9c0-0.1,0-0.2,0-0.2c0-0.1,0-0.2,0-0.3c0-0.2,0-0.5,0-0.7c0-0.2,0-0.5,0-0.7c0-0.1,0-0.2,0-0.3c0-0.1,0-0.2,0-0.2L39,94
			c0,0,0,0,0,0c-0.3,1.7-0.3,3.5-0.2,5.3c0,0,0,0.1,0,0.1c0,0.6,0.1,1.1,0.2,1.7c0,0,0,0.1,0,0.1L29.2,98.9z M41.8,103l-0.1-0.4
			c-0.8-3.4-0.8-6.7-0.1-9.8l0.1-0.5c0.5-1.9,2.1-3.2,3.8-3.2h0.2v17.2h-0.1C43.9,106.2,42.4,104.9,41.8,103z M53.3,98.5
			c0-28,27.2-89.2,56.5-90.3V113H94.8c-2.4,0-4.4,2-4.4,4.4s2,4.4,4.4,4.4h15.1v18.9c-23.3-0.1-38.2-3.7-46.6-11.2
			C56.2,123.2,53.3,114.2,53.3,98.5z M65.6,167c-1.1-0.2-2.3-0.3-3.4-0.5l0.5-10.3c0.9,0.1,1.9,0.2,2.9,0.3V167z M34.9,150.7
			l9.2-4.2c0.6,0.7,1.2,1.3,1.9,1.9l-8.2,5.9C36.8,153.2,35.9,152,34.9,150.7z M34.4,156.9l-2.1,1.6c-1.4-1.5-2.7-3.1-4-4.7l2.7-1.2
			C32.1,154,33.2,155.5,34.4,156.9z M47.3,149.5c0.8,0.7,1.6,1.3,2.5,1.8c-0.3,0.3-0.7,0.7-1.2,1.2c-1.3,1.3-3,3-4.8,4.8l-1.3,1.3
			c-1.3-0.9-2.5-1.9-3.6-3L47.3,149.5z M51.2,152.2c0.7,0.4,1.4,0.8,2.1,1.1l-5,8.7c-1.5-0.8-3-1.6-4.4-2.6
			C46.9,156.5,49.9,153.5,51.2,152.2z M54.8,154c0.7,0.3,1.5,0.6,2.2,0.9l-2.4,9.7c-1.6-0.5-3.2-1.1-4.8-1.8L54.8,154z M46.2,165.8
			L45,168c-2.1-1.1-4-2.3-5.9-3.6c0.5-0.5,1.1-1.1,1.7-1.8C42.5,163.8,44.3,164.9,46.2,165.8z M47.7,166.5c1.9,0.9,3.8,1.6,5.9,2.2
			l-0.6,2.4c-2.2-0.7-4.4-1.5-6.5-2.5L47.7,166.5z M55.1,169.2c1.7,0.5,3.5,0.9,5.4,1.2l-0.1,2.5c-2-0.3-3.9-0.7-5.9-1.2L55.1,169.2
			z M56.1,165.1l2.4-9.7c0.9,0.2,1.7,0.4,2.6,0.6l-0.5,10.2C59.1,165.9,57.6,165.5,56.1,165.1z M43.1,145.2l-9,4.1
			c-0.6-1-1.2-2.1-1.8-3.2l9.1-3.1C41.9,143.8,42.5,144.5,43.1,145.2z M28.2,147.5c0.6,1.2,1.2,2.4,1.9,3.6l-2.8,1.2
			c-0.8-1.2-1.6-2.4-2.3-3.7L28.2,147.5z M33.4,159.6l2.1-1.5c1.2,1.3,2.6,2.5,4,3.6l-1.7,1.7C36.3,162.2,34.8,160.9,33.4,159.6z
			 M61.9,173.1l0.1-2.4c1.2,0.2,2.4,0.3,3.6,0.4v2.2C64.4,173.3,63.1,173.2,61.9,173.1z M75.3,147.4c3.4,0.6,7.5,1,12,1.4
			c-4.9,16.1-4.7,34.9,0.7,57.1c-19.7-11-19.7-36.6-19.7-47.9C68.2,152.9,70.7,149.5,75.3,147.4z M73.5,256.2c0-0.8-0.1-1.5-0.1-2.3
			h4c0,0.7,0.1,1.5,0.1,2.3H73.5z M60.6,246.6l8.3,0.7c-0.1,1.6-0.2,3.3-0.2,5h-8.2C60.5,250.4,60.5,248.5,60.6,246.6z M75.1,221.1
			c-0.7,1.5-1.3,3.1-1.8,4.6l-8.1-3.1c0.7-1.8,1.4-3.6,2.2-5.3L75.1,221.1z M68,215.8c0.8-1.7,1.6-3.3,2.6-4.9l7.4,4.4
			c-0.8,1.4-1.5,2.8-2.1,4.3L68,215.8z M72.8,227.2c-0.5,1.6-1,3.3-1.4,4.9l-8.4-2.2c0.5-2,1.1-3.9,1.7-5.8L72.8,227.2z M70.9,233.7
			c-0.4,1.8-0.8,3.6-1.1,5.5l-8.5-1.5c0.3-2.1,0.7-4.1,1.2-6.1L70.9,233.7z M69.6,240.7c-0.2,1.7-0.4,3.3-0.6,5l-8.4-0.7
			c0.1-2,0.3-3.9,0.5-5.8L69.6,240.7z M77.5,246.5l-3.9-0.3c0.1-1.5,0.3-3.1,0.5-4.6l3.7,0.7C77.7,243.6,77.6,245,77.5,246.5z
			 M73.5,247.7l3.9,0.3c0,1.4,0,2.8,0,4.2h-4C73.4,250.8,73.4,249.3,73.5,247.7z M78.1,240.6l-3.7-0.7c0.3-1.7,0.6-3.4,1.1-5.1
			l3.5,0.9C78.6,237.3,78.3,239,78.1,240.6z M75.8,233.3c0.4-1.5,0.8-3,1.3-4.4l3.4,1.3c-0.4,1.3-0.8,2.7-1.2,4.1L75.8,233.3z
			 M77.7,227.3c0.5-1.4,1.1-2.8,1.7-4.2l3.3,1.6c-0.6,1.3-1.1,2.6-1.5,3.9L77.7,227.3z M80,221.7c0.6-1.3,1.2-2.6,1.9-3.9l3.2,1.9
			c-0.7,1.2-1.3,2.4-1.8,3.6L80,221.7z M82.7,216.3c0.7-1.4,1.5-2.7,2.4-4.1l3.1,2.3c-0.8,1.2-1.6,2.5-2.3,3.7L82.7,216.3z
			 M78.7,213.9l-7.3-4.4c1-1.7,2-3.3,3.1-4.9l6.9,5C80.5,211,79.6,212.4,78.7,213.9z M75.5,203.3c0.5-0.7,1-1.5,1.6-2.2
			c2,2.4,4.1,4.2,6.2,5.7c-0.3,0.5-0.7,0.9-1,1.4L75.5,203.3z M60.6,253.9h8.2c0,0.8,0,1.5,0,2.3h-8.1
			C60.6,255.4,60.6,254.7,60.6,253.9z M89.1,213.2l-3.2-2.3c0.4-0.6,0.7-1.1,1.1-1.7c1.5,0.8,2.7,1.4,3.7,1.8
			C90.1,211.7,89.6,212.4,89.1,213.2z M160.8,252.3h-8.2c0-1.7-0.1-3.3-0.2-5l8.3-0.7C160.9,248.5,160.9,250.4,160.8,252.3z
			 M139.4,217.7c0.7,1.3,1.3,2.6,1.9,3.9l-3.3,1.6c-0.6-1.2-1.2-2.4-1.8-3.6L139.4,217.7z M135.5,218.2c-0.7-1.3-1.5-2.5-2.3-3.7
			l3.1-2.3c0.8,1.4,1.6,2.7,2.4,4.1L135.5,218.2z M142,223.1c0.6,1.4,1.1,2.8,1.7,4.2l-3.4,1.3c-0.5-1.3-1-2.6-1.5-3.9L142,223.1z
			 M144.2,228.9c0.5,1.5,0.9,2.9,1.3,4.4l-3.5,0.9c-0.3-1.4-0.7-2.7-1.2-4.1L144.2,228.9z M145.9,234.8c0.4,1.7,0.8,3.4,1.1,5.1
			l-3.7,0.7c-0.2-1.6-0.5-3.3-0.9-4.9L145.9,234.8z M143.5,242.2l3.7-0.7c0.2,1.5,0.4,3.1,0.5,4.6l-3.9,0.3
			C143.8,245,143.6,243.6,143.5,242.2z M143.8,256.2c0.1-0.8,0.1-1.5,0.1-2.3h4c0,0.8,0,1.5-0.1,2.3H143.8z M144,252.3
			c0-1.4,0-2.8,0-4.2l3.9-0.3c0.1,1.5,0.1,3,0.1,4.6H144z M152.3,245.8c-0.1-1.7-0.3-3.4-0.6-5l8.4-1.5c0.2,1.9,0.4,3.8,0.5,5.8
			L152.3,245.8z M160,237.6l-8.5,1.5c-0.3-1.8-0.7-3.7-1.1-5.5l8.4-2.2C159.3,233.5,159.6,235.6,160,237.6z M150,232.1
			c-0.4-1.7-0.9-3.3-1.4-4.9l8.1-3.1c0.7,1.9,1.2,3.9,1.7,5.8L150,232.1z M148,225.7c-0.6-1.6-1.2-3.1-1.8-4.6l7.8-3.8
			c0.8,1.8,1.5,3.5,2.2,5.3L148,225.7z M145.5,219.6c-0.7-1.4-1.4-2.9-2.1-4.3l7.4-4.4c0.9,1.6,1.8,3.3,2.6,4.9L145.5,219.6z
			 M142.6,213.9c-0.8-1.5-1.7-2.9-2.7-4.4l6.9-5c1.1,1.6,2.1,3.3,3.1,4.9L142.6,213.9z M139.1,208.2c-0.3-0.5-0.7-0.9-1-1.4
			c2.1-1.5,4.3-3.4,6.2-5.7c0.5,0.7,1.1,1.5,1.6,2.2L139.1,208.2z M134.3,209.1c0.4,0.6,0.8,1.1,1.1,1.7l-3.2,2.3
			c-0.5-0.8-1-1.5-1.6-2.2C131.6,210.5,132.9,210,134.3,209.1z M152.6,256.2c0-0.8,0-1.5,0-2.3h8.2c0,0.8-0.1,1.5-0.1,2.3H152.6z
			 M110.7,211c-8.6,0-15.4-1.6-20.9-4.2c-5.7-22.7-6-41.7-0.9-57.9c6.5,0.5,13.9,0.8,21.8,0.8c14.1,0,26.7-0.9,35.4-2.3
			c4.5,2.2,7.1,5.5,7.1,10.6C153.2,172.5,153.2,211,110.7,211z M156.2,171.1c1.2-0.1,2.4-0.3,3.6-0.4l0.1,2.4
			c-1.2,0.1-2.5,0.2-3.7,0.3V171.1z M184.1,163.4l-1.7-1.7c1.4-1.1,2.8-2.3,4-3.6l2.1,1.5C187.1,160.9,185.6,162.2,184.1,163.4z
			 M194.5,152.3l-2.8-1.2c0.7-1.1,1.3-2.3,1.9-3.6l3.1,1.1C196,149.9,195.3,151.1,194.5,152.3z M188.6,141.1
			c0.3-0.8,1.1-1.2,1.9-0.9c0.8,0.3,1.2,1.1,0.9,1.9c-0.3,0.8-1.1,1.2-1.9,0.9C188.7,142.8,188.3,141.9,188.6,141.1z"/>
		<path class="st0" d="M202.9,117.2l-2.7-1.7l-4,10.9l1.2,1.2c1.5,1.4,2,3.5,1.3,5.4c-0.7,2-2.7,3.3-4.8,3.3c-0.6,0-1.2-0.1-1.7-0.3
			c-1.3-0.5-2.3-1.4-2.9-2.6c-0.6-1.2-0.6-2.6-0.2-3.9c0.7-1.9,2.5-3.2,4.5-3.3l1.7-0.1l4-10.9l-3.2-0.4c-0.8-0.1-1.5-0.2-2.3-0.2
			c-7,0-13.3,4.4-15.7,10.9c-1.4,3.8-1.3,8,0.1,11.7l-1.5,2.3c-4.4,6.9-11.8,11.3-19.9,11.9c-0.5-1.2-1.2-2.3-2-3.4
			c3.3-1.1,5.7-2.6,5.7-5.2c0-2.2-1.6-3.8-5.3-5.1c8.6-4.8,13.9-12.1,16.2-22.4c2.9-0.1,5.6-1.7,6.9-4.2c2.8-0.5,5.1-2.4,6.4-5.1
			l8.1-1.9c1.9,2.4,4.8,3.8,8,3.8c5.7,0,10.3-4.6,10.3-10.3c0-5.7-4.6-10.3-10.3-10.3c-3.1,0-6,1.4-8,3.8l-8-1.9
			c-1.3-2.7-3.7-4.6-6.6-5.1c-1.4-2.5-4.1-4.2-7.1-4.2h-0.9c-3.1-12.8-8.6-27-15.3-39.2c-7.7-14-23.7-37.6-44.4-37.6
			C90,3.2,74,26.7,66.3,40.7C59.6,52.9,54,67.1,50.9,79.9c-2.9,0.1-5.5,1.7-6.8,4.2c-2.8,0.5-5.3,2.4-6.5,5.1l-8,1.9
			c-1.9-2.4-4.8-3.8-8-3.8c-5.7,0-10.3,4.6-10.3,10.3c0,5.7,4.6,10.3,10.3,10.3c3.1,0,6-1.4,8-3.8l8.1,1.9c1.3,2.7,3.7,4.5,6.4,5.1
			c1.2,2.2,3.3,3.7,5.8,4.1c1.7,7.6,5,13.5,10,18c1.9,1.7,3.9,3.2,6.3,4.5c-3.8,1.3-5.4,2.9-5.4,5.1c0,2.6,2.4,4.1,5.7,5.2
			c-0.8,1-1.5,2.1-2,3.3c-7.8-0.8-15.1-5.2-19.4-11.9l-1.5-2.3c1.4-3.7,1.5-7.9,0.1-11.7c-2.4-6.5-8.7-10.9-15.7-10.9
			c-0.8,0-1.5,0.1-2.3,0.2l-3.2,0.4l4,10.9l1.7,0.1c2,0.1,3.8,1.4,4.5,3.3c1,2.6-0.4,5.6-3,6.5c-0.6,0.2-1.2,0.3-1.7,0.3
			c-2.1,0-4-1.3-4.8-3.3c-0.7-1.9-0.2-4,1.3-5.4l1.2-1.2l-4-10.9l-2.7,1.7c-6.6,4.2-9.4,12.5-6.7,19.8c1.3,3.5,3.7,6.4,6.8,8.4
			l-1.1,0.4l2,3.9c8.6,16.8,25.9,27.8,44.6,28.7c1.5,8,4.1,14.9,7.9,20.4c-12.1,16.4-17.7,34.4-17,54.9H41.7c-3.4,0-6.2,2.8-6.2,6.2
			v4.7H86v-4.7c0-2.4-1.4-4.6-3.5-5.6c-0.7-15.2,3.2-28,12.2-40.2c4.8,1.3,10.2,2,16,2c5.8,0,11.2-0.7,16-2
			c9,12.1,12.9,25,12.2,40.2c-2.1,1-3.5,3.1-3.5,5.6v4.7h50.5v-4.7c0-3.4-2.8-6.2-6.2-6.2h-13.8c0.6-20.5-5-38.5-17-54.9
			c3.8-5.5,6.4-12.3,7.9-20.3c18.9-0.6,36.5-11.7,45.1-28.7l2-3.9l-1.1-0.4c3.1-1.9,5.5-4.8,6.8-8.4
			C212.2,129.7,209.4,121.4,202.9,117.2z M205.8,135.7c-1.8,4.8-6.2,8.1-11.3,8.4l-0.4,2.5l4.1,1.4c-8.2,16.1-25.2,26.5-43.3,26.5
			h-1.7l-0.2,1.1c-1.4,9.1-4.3,16.7-8.7,22.4l-0.6,0.8l0.6,0.8c12.8,16.8,18.5,35.3,17.3,56.6l-0.1,1.4h17.9c1.3,0,2.3,1,2.3,2.3
			v0.8h-42.6v-0.8c0-1.2,0.9-2.2,2.2-2.3l1.1-0.1l0.1-1.1c1.2-17.6-3.2-32.2-13.9-46l-0.6-0.7l-0.9,0.2c-4.9,1.6-10.5,2.3-16.6,2.3
			c-6.2,0-11.7-0.8-16.6-2.3l-0.9-0.3l-0.6,0.7c-10.8,13.9-15.2,28.5-13.9,46.1l0.1,1.1l1.1,0.1c1.2,0.1,2.2,1.1,2.2,2.3v0.8H39.4
			v-0.8c0-1.3,1-2.3,2.3-2.3h17.9l-0.1-1.4c-1.2-21.3,4.4-39.9,17.3-56.6l0.6-0.8l-0.6-0.8c-4.4-5.7-7.3-13.2-8.7-22.4l-0.2-1.1
			h-1.1c-18.1,0-35-10.4-43.3-26.5l4.1-1.4l-0.4-2.5c-5.1-0.3-9.6-3.6-11.3-8.4c-1.9-5.1-0.3-10.8,3.8-14.2l1.4,3.9
			c-2.1,2.5-2.8,5.9-1.6,9c1.3,3.5,4.7,5.9,8.4,5.9c1.1,0,2.1-0.2,3.1-0.6c2.3-0.8,4-2.5,5.1-4.7c1-2.2,1.1-4.6,0.3-6.9
			c-1.1-3.1-3.9-5.3-7.1-5.8l-1.4-3.9c0,0,0.1,0,0.1,0c5.3,0,10.2,3.4,12,8.4c1.8,4.9,0.4,10.6-3.6,14.1l1.3,2.2l4.1-1.4
			c5.3,8.3,14.6,13.5,24.4,13.7l1,0l0.3-1c0.7-2.7,2.3-4.9,4.9-6.6l2.6-1.7l-3-0.6c-5.7-1.2-7-2.3-7.3-2.6c0.3-0.3,1.9-1.7,9.8-3.1
			l4.9-0.9l-4.7-1.7c-5-1.8-9-4-12.1-6.9c-4.8-4.3-7.8-10.1-9.2-17.8l-0.2-1.1h-1.9c-1.9,0-3.5-1.3-4-3.1l-0.3-1h-1.3
			c-2.2,0-4.1-1.6-4.8-3.9l-0.2-0.7l-12.9-3.1l-0.5,0.9c-1.1,2.1-3.3,3.4-5.7,3.4c-3.5,0-6.4-2.9-6.4-6.4c0-3.5,2.9-6.4,6.4-6.4
			c2.4,0,4.5,1.3,5.7,3.4l0.5,0.9l12.8-3.1l0.2-0.7c0.7-2.3,2.6-3.9,4.8-3.9h1.4l0.3-1c0.5-1.8,2.1-3.1,4-3.1H54l0.2-1
			c2.9-13,8.5-27.6,15.4-40.2C77,29.3,92,7.1,110.7,7.1s33.7,22.3,41,35.6c6.9,12.5,12.5,27.2,15.4,40.2l0.2,1h4
			c1.9,0,3.5,1.3,4,3.1l0.3,1h1.4c2.2,0,4.1,1.6,4.8,3.9l0.2,0.7l12.8,3.1l0.5-0.9c1.1-2.1,3.3-3.4,5.7-3.4c3.5,0,6.4,2.9,6.4,6.4
			c0,3.5-2.9,6.4-6.4,6.4c-2.4,0-4.5-1.3-5.7-3.4l-0.5-0.9l-12.9,3.1l-0.2,0.7c-0.7,2.3-2.6,3.9-4.8,3.9h-1.3l-0.3,1
			c-0.5,1.8-2.1,3.1-4,3.1h-3.1l-0.2,1.1c-2.3,12.7-8.9,20.3-21.2,24.7l-4.7,1.7l4.9,0.9c7.7,1.4,9.3,2.7,9.6,3.1
			c-0.3,0.3-1.5,1.4-7.3,2.6l-3,0.6l2.6,1.7c2.6,1.7,4.2,3.9,4.9,6.7l0.3,1l1,0c10,0,19.5-5.3,25-13.7l4.1,1.4l1.3-2.2
			c-4-3.5-5.4-9.1-3.6-14.1c1.8-5,6.7-8.4,12-8.4c0,0,0.1,0,0.1,0l-1.4,3.9c-3.2,0.5-6,2.7-7.1,5.8c-1.7,4.7,0.7,9.8,5.3,11.5
			c1,0.4,2,0.6,3.1,0.6c3.8,0,7.1-2.4,8.4-5.9c1.1-3.1,0.5-6.5-1.6-9l1.4-3.9C206.1,124.9,207.7,130.6,205.8,135.7z"/>
		<path class="st0" d="M110.7,159v24.3H135V159H110.7z M131.1,163.7l-5.7,5.8l3.6,1.6c0.4,0.2,0.4,0.7,0.1,0.9l-12.8,8.2
			c-0.7,0.4-1.4-0.4-0.9-1l5.5-6.2l-4.6-0.9c-0.5-0.1-0.6-0.7-0.2-1l13.8-9C130.9,161.5,132,162.8,131.1,163.7z"/>
	</g>
	<g>
		<g>
			<g>
				<polyline class="st1" points="27.4,100.9 31.2,109.4 22.4,103.7 20.2,114 16.5,104.1 8.6,111.2 11.4,101 0.9,102.1 9.1,95.5 
					0,90.2 10.5,89.7 6.2,80.1 15.1,85.8 17.3,75.5 21,85.4 28.8,78.3 26.4,87.4 				"/>
			</g>
			<g>
				<polyline class="st1" points="189.9,87.4 187.5,78.3 195.3,85.4 199.1,75.5 201.2,85.8 210.1,80.1 205.8,89.7 216.3,90.2 
					207.2,95.5 215.4,102.1 204.9,101 207.7,111.2 199.8,104.1 196.1,114 193.9,103.7 185.1,109.4 188.9,100.9 				"/>
			</g>
			<g>
				<g>
					<path class="st2" d="M136.4,257.7v-0.8c0-1.2,0.9-2.2,2.2-2.3l1.1-0.1l0.1-1.1c1.2-17.6-3.2-32.2-13.9-46l-0.6-0.7l-0.9,0.2
						c-4.9,1.6-10.5,2.3-16.6,2.3c-6.2,0-11.7-0.8-16.6-2.3l-0.9-0.3l-0.6,0.7c-10.8,13.9-15.2,28.5-13.9,46.1l0.1,1.1l1.1,0.1
						c1.2,0.1,2.2,1.1,2.2,2.3v0.8H36.5v-0.8c0-1.3,1-2.3,2.3-2.3h17.9l-0.1-1.4c-1.2-21.3,4.4-39.9,17.3-56.6l0.6-0.8L74,195
						c-4.4-5.7-7.3-13.2-8.7-22.4l-0.2-1.1H64c-18.1,0-35-10.4-43.3-26.5l4.1-1.4l-0.4-2.5c-5.1-0.3-9.6-3.6-11.3-8.4
						c-1.9-5.1-0.3-10.8,3.8-14.2l1.4,3.9c-2.1,2.5-2.8,5.9-1.6,9c1.3,3.5,4.7,5.9,8.4,5.9c1.1,0,2.1-0.2,3.1-0.6
						c2.3-0.8,4-2.5,5.1-4.7c1-2.2,1.1-4.6,0.3-6.9c-1.1-3.1-3.9-5.3-7.1-5.8l-1.4-3.9c0,0,0.1,0,0.1,0c5.3,0,10.2,3.4,12,8.4
						c1.8,4.9,0.4,10.6-3.6,14.1l1.3,2.2l4.1-1.4c5.3,8.3,14.6,13.5,24.4,13.7l1,0l0.3-1c0.7-2.7,2.3-4.9,4.9-6.6l2.6-1.7l-3-0.6
						c-5.7-1.2-7-2.3-7.3-2.6c0.3-0.3,1.9-1.7,9.8-3.1l4.9-0.9l-4.7-1.7c-5-1.8-9-4-12.1-6.9c-4.8-4.3-7.8-10.1-9.2-17.8l-0.2-1.1
						h-1.9c-1.9,0-3.5-1.3-4-3.1l-0.3-1h-1.3c-2.2,0-4.1-1.6-4.8-3.9l-0.2-0.7l-12.9-3.1l-0.5,0.9c-1.1,2.1-3.3,3.4-5.7,3.4
						c-3.5,0-6.4-2.9-6.4-6.4c0-3.5,2.9-6.4,6.4-6.4c2.4,0,4.5,1.3,5.7,3.4l0.5,0.9l12.8-3.1l0.2-0.7c0.7-2.3,2.6-3.9,4.8-3.9H44
						l0.3-1c0.5-1.8,2.1-3.1,4-3.1h2.8l0.2-1c2.9-13,8.5-27.6,15.4-40.2c7.3-13.3,22.3-35.6,41-35.6s33.7,22.3,41,35.6
						c6.9,12.5,12.5,27.2,15.4,40.2l0.2,1h4c1.9,0,3.5,1.3,4,3.1l0.3,1h1.4c2.2,0,4.1,1.6,4.8,3.9l0.2,0.7l12.8,3.1l0.5-0.9
						c1.1-2.1,3.3-3.4,5.7-3.4c3.5,0,6.4,2.9,6.4,6.4c0,3.5-2.9,6.4-6.4,6.4c-2.4,0-4.5-1.3-5.7-3.4l-0.5-0.9L179,99.9l-0.2,0.7
						c-0.7,2.3-2.6,3.9-4.8,3.9h-1.3l-0.3,1c-0.5,1.8-2.1,3.1-4,3.1h-3.1l-0.2,1.1c-2.3,12.7-8.9,20.3-21.2,24.7l-4.7,1.7l4.9,0.9
						c7.7,1.4,9.3,2.7,9.6,3.1c-0.3,0.3-1.5,1.4-7.3,2.6l-3,0.6l2.6,1.7c2.6,1.7,4.2,3.9,4.9,6.7l0.3,1l1,0c10,0,19.5-5.3,25-13.7
						l4.1,1.4l1.3-2.2c-4-3.5-5.4-9.1-3.6-14.1c1.8-5,6.7-8.4,12-8.4c0,0,0.1,0,0.1,0l-1.4,3.9c-3.2,0.5-6,2.7-7.1,5.8
						c-1.7,4.7,0.7,9.8,5.3,11.5c1,0.4,2,0.6,3.1,0.6c3.8,0,7.1-2.4,8.4-5.9c1.1-3.1,0.5-6.5-1.6-9l1.4-3.9
						c4.1,3.4,5.6,9.1,3.8,14.2c-1.8,4.8-6.2,8.1-11.3,8.4l-0.4,2.5l4.1,1.4c-8.2,16.1-25.2,26.5-43.3,26.5h-1.7l-0.2,1.1
						c-1.4,9.1-4.3,16.7-8.7,22.4l-0.6,0.8l0.6,0.8c12.8,16.8,18.5,35.3,17.3,56.6l-0.1,1.4h17.9c1.3,0,2.3,1,2.3,2.3v0.8H136.4z"/>
				</g>
			</g>
			<path class="st3" d="M127,159.3l-13.8,9c-0.4,0.3-0.3,0.9,0.2,1l4.6,0.9l-5.5,6.2c-0.5,0.6,0.2,1.5,0.9,1l12.8-8.2
				c0.4-0.2,0.3-0.8-0.1-0.9l-3.6-1.6l5.7-5.8C129.1,160,128,158.6,127,159.3z"/>
			<g>
				<g>
					<path class="st1" d="M22.6,93.5c-0.5,1.7-2,2.9-3.9,2.9c-1.8,0-3.4-1.2-3.9-2.9c-0.1,0.4-0.2,0.8-0.2,1.2
						c0,2.2,1.8,4.1,4.1,4.1c2.2,0,4.1-1.8,4.1-4.1C22.8,94.3,22.7,93.9,22.6,93.5z"/>
				</g>
				<g>
					<path class="st1" d="M198,98.8c2.2,0,4.1-1.8,4.1-4.1c0-0.4-0.1-0.8-0.2-1.2c-0.5,1.7-2,2.9-3.9,2.9c-1.8,0-3.4-1.2-3.9-2.9
						c-0.1,0.4-0.2,0.8-0.2,1.2C193.9,97,195.8,98.8,198,98.8z"/>
				</g>
				<g>
					<path class="st1" d="M101.4,23.1c1.3,0,2.3-1,2.3-2.3c0-1.3-1-2.3-2.3-2.3c-1.3,0-2.3,1-2.3,2.3C99.1,22,100.1,23.1,101.4,23.1
						z M101.4,19.3c0.6,0,1.2,0.5,1.2,1.2c0,0.6-0.5,1.2-1.2,1.2c-0.6,0-1.2-0.5-1.2-1.2C100.2,19.9,100.7,19.3,101.4,19.3z"/>
				</g>
				<g>
					<path class="st1" d="M101.4,39.1c1.3,0,2.3-1,2.3-2.3c0-1.3-1-2.3-2.3-2.3c-1.3,0-2.3,1-2.3,2.3
						C99.1,38.1,100.1,39.1,101.4,39.1z M101.4,35.4c0.6,0,1.2,0.5,1.2,1.2s-0.5,1.2-1.2,1.2c-0.6,0-1.2-0.5-1.2-1.2
						S100.7,35.4,101.4,35.4z"/>
				</g>
				<g>
					<path class="st1" d="M114.2,31.1c1.3,0,2.3-1,2.3-2.3c0-1.3-1-2.3-2.3-2.3c-1.3,0-2.3,1-2.3,2.3
						C111.9,30.1,113,31.1,114.2,31.1z M114.2,27.4c0.6,0,1.2,0.5,1.2,1.2s-0.5,1.2-1.2,1.2c-0.6,0-1.2-0.5-1.2-1.2
						S113.6,27.4,114.2,27.4z"/>
				</g>
				<g>
					<path class="st1" d="M101.4,55.1c1.3,0,2.3-1,2.3-2.3c0-1.3-1-2.3-2.3-2.3c-1.3,0-2.3,1-2.3,2.3
						C99.1,54.1,100.1,55.1,101.4,55.1z M101.4,51.4c0.6,0,1.2,0.5,1.2,1.2s-0.5,1.2-1.2,1.2c-0.6,0-1.2-0.5-1.2-1.2
						S100.7,51.4,101.4,51.4z"/>
				</g>
				<g>
					<path class="st1" d="M114.2,47.1c1.3,0,2.3-1,2.3-2.3c0-1.3-1-2.3-2.3-2.3c-1.3,0-2.3,1-2.3,2.3
						C111.9,46.1,113,47.1,114.2,47.1z M114.2,43.4c0.6,0,1.2,0.5,1.2,1.2s-0.5,1.2-1.2,1.2c-0.6,0-1.2-0.5-1.2-1.2
						S113.6,43.4,114.2,43.4z"/>
				</g>
				<g>
					<path class="st1" d="M101.4,71.2c1.3,0,2.3-1,2.3-2.3c0-1.3-1-2.3-2.3-2.3c-1.3,0-2.3,1-2.3,2.3
						C99.1,70.2,100.1,71.2,101.4,71.2z M101.4,67.4c0.6,0,1.2,0.5,1.2,1.2c0,0.6-0.5,1.2-1.2,1.2c-0.6,0-1.2-0.5-1.2-1.2
						C100.2,68,100.7,67.4,101.4,67.4z"/>
				</g>
				<g>
					<path class="st1" d="M114.2,63.2c1.3,0,2.3-1,2.3-2.3c0-1.3-1-2.3-2.3-2.3c-1.3,0-2.3,1-2.3,2.3
						C111.9,62.1,113,63.2,114.2,63.2z M114.2,59.4c0.6,0,1.2,0.5,1.2,1.2s-0.5,1.2-1.2,1.2c-0.6,0-1.2-0.5-1.2-1.2
						S113.6,59.4,114.2,59.4z"/>
				</g>
				<g>
					<path class="st1" d="M101.4,87.2c1.3,0,2.3-1,2.3-2.3c0-1.3-1-2.3-2.3-2.3c-1.3,0-2.3,1-2.3,2.3
						C99.1,86.2,100.1,87.2,101.4,87.2z M101.4,83.5c0.6,0,1.2,0.5,1.2,1.2c0,0.6-0.5,1.2-1.2,1.2c-0.6,0-1.2-0.5-1.2-1.2
						C100.2,84,100.7,83.5,101.4,83.5z"/>
				</g>
				<g>
					<path class="st1" d="M114.2,79.2c1.3,0,2.3-1,2.3-2.3c0-1.3-1-2.3-2.3-2.3c-1.3,0-2.3,1-2.3,2.3
						C111.9,78.2,113,79.2,114.2,79.2z M114.2,75.5c0.6,0,1.2,0.5,1.2,1.2c0,0.6-0.5,1.2-1.2,1.2c-0.6,0-1.2-0.5-1.2-1.2
						C113,76,113.6,75.5,114.2,75.5z"/>
				</g>
				<g>
					<path class="st1" d="M101.4,103.2c1.3,0,2.3-1,2.3-2.3c0-1.3-1-2.3-2.3-2.3c-1.3,0-2.3,1-2.3,2.3
						C99.1,102.2,100.1,103.2,101.4,103.2z M101.4,99.5c0.6,0,1.2,0.5,1.2,1.2c0,0.6-0.5,1.2-1.2,1.2c-0.6,0-1.2-0.5-1.2-1.2
						C100.2,100,100.7,99.5,101.4,99.5z"/>
				</g>
				<g>
					<path class="st1" d="M114.2,90.7c-1.3,0-2.3,1-2.3,2.3c0,1.3,1,2.3,2.3,2.3c1.3,0,2.3-1,2.3-2.3
						C116.5,91.7,115.5,90.7,114.2,90.7z M114.2,93.8c-0.6,0-1.2-0.5-1.2-1.2c0-0.6,0.5-1.2,1.2-1.2c0.6,0,1.2,0.5,1.2,1.2
						C115.4,93.3,114.8,93.8,114.2,93.8z"/>
				</g>
				<g>
					<path class="st1" d="M101.4,130.8c-1.3,0-2.3,1-2.3,2.3c0,1.3,1,2.3,2.3,2.3c1.3,0,2.3-1,2.3-2.3
						C103.6,131.8,102.6,130.8,101.4,130.8z M101.4,133.9c-0.6,0-1.2-0.5-1.2-1.2c0-0.6,0.5-1.2,1.2-1.2c0.6,0,1.2,0.5,1.2,1.2
						C102.5,133.4,102,133.9,101.4,133.9z"/>
				</g>
				<g>
					<path class="st1" d="M114.2,122.8c-1.3,0-2.3,1-2.3,2.3c0,1.3,1,2.3,2.3,2.3c1.3,0,2.3-1,2.3-2.3
						C116.5,123.8,115.5,122.8,114.2,122.8z M114.2,125.9c-0.6,0-1.2-0.5-1.2-1.2c0-0.6,0.5-1.2,1.2-1.2c0.6,0,1.2,0.5,1.2,1.2
						C115.4,125.4,114.8,125.9,114.2,125.9z"/>
				</g>
				<g>
					<path class="st1" d="M91.6,93.5V65.7c0-6.7-4-8.4-8.3-8.4c-4.2,0-8.3,1.8-8.3,8.4v27.8c0,6.7,4,8.4,8.3,8.4
						C87.6,102,91.6,100.2,91.6,93.5z M86.6,93.5c0,3.2-1.3,4.4-3.3,4.4c-2,0-3.3-1.2-3.3-4.4V65.7c0-3.2,1.3-4.4,3.3-4.4
						c2,0,3.3,1.2,3.3,4.4V93.5z"/>
				</g>
				<g>
					<path class="st1" d="M132.2,102c2,0,3.3-1.2,3.3-4.4V61.7c0-3.2-1.3-4.4-3.3-4.4c-2,0-3.3,1.2-3.3,4.4v35.8
						C129,100.8,130.2,102,132.2,102z"/>
				</g>
				<g>
					<path class="st1" d="M76.5,161.5c1.3,0,2.3-1,2.3-2.3c0-1.3-1-2.3-2.3-2.3c-1.3,0-2.3,1-2.3,2.3
						C74.3,160.5,75.3,161.5,76.5,161.5z M76.5,157.8c0.6,0,1.2,0.5,1.2,1.2c0,0.6-0.5,1.2-1.2,1.2c-0.6,0-1.2-0.5-1.2-1.2
						C75.4,158.3,75.9,157.8,76.5,157.8z"/>
				</g>
				<g>
					<path class="st1" d="M90,167.3c0-1.3-1-2.3-2.3-2.3c-1.3,0-2.3,1-2.3,2.3c0,1.3,1,2.3,2.3,2.3C89,169.5,90,168.5,90,167.3z
						 M86.6,167c0-0.6,0.5-1.2,1.2-1.2c0.6,0,1.2,0.5,1.2,1.2s-0.5,1.2-1.2,1.2C87.1,168.1,86.6,167.6,86.6,167z"/>
				</g>
				<g>
					<path class="st1" d="M89.4,154.3c1.3,0,2.3-1,2.3-2.3c0-1.3-1-2.3-2.3-2.3c-1.3,0-2.3,1-2.3,2.3
						C87.1,153.3,88.1,154.3,89.4,154.3z M89.4,150.6c0.6,0,1.2,0.5,1.2,1.2s-0.5,1.2-1.2,1.2c-0.6,0-1.2-0.5-1.2-1.2
						S88.7,150.6,89.4,150.6z"/>
				</g>
				<g>
					<path class="st1" d="M78,175.3c0-1.3-1-2.3-2.3-2.3c-1.3,0-2.3,1-2.3,2.3c0,1.3,1,2.3,2.3,2.3C77,177.5,78,176.5,78,175.3z
						 M75.7,176.1c-0.6,0-1.2-0.5-1.2-1.2s0.5-1.2,1.2-1.2c0.6,0,1.2,0.5,1.2,1.2S76.4,176.1,75.7,176.1z"/>
				</g>
				<g>
					<path class="st1" d="M90.8,183.3c0-1.3-1-2.3-2.3-2.3c-1.3,0-2.3,1-2.3,2.3c0,1.3,1,2.3,2.3,2.3
						C89.8,185.6,90.8,184.5,90.8,183.3z M87.4,183c0-0.6,0.5-1.2,1.2-1.2c0.6,0,1.2,0.5,1.2,1.2c0,0.6-0.5,1.2-1.2,1.2
						C87.9,184.2,87.4,183.6,87.4,183z"/>
				</g>
				<g>
					<path class="st1" d="M81.2,191.3c0-1.3-1-2.3-2.3-2.3c-1.3,0-2.3,1-2.3,2.3c0,1.3,1,2.3,2.3,2.3
						C80.2,193.6,81.2,192.6,81.2,191.3z M77.8,191c0-0.6,0.5-1.2,1.2-1.2c0.6,0,1.2,0.5,1.2,1.2s-0.5,1.2-1.2,1.2
						C78.3,192.2,77.8,191.7,77.8,191z"/>
				</g>
				<g>
					<path class="st1" d="M90.2,197.1c-1.3,0-2.3,1-2.3,2.3c0,1.3,1,2.3,2.3,2.3c1.3,0,2.3-1,2.3-2.3
						C92.4,198.1,91.4,197.1,90.2,197.1z M90.2,200.2c-0.6,0-1.2-0.5-1.2-1.2c0-0.6,0.5-1.2,1.2-1.2c0.6,0,1.2,0.5,1.2,1.2
						C91.3,199.7,90.8,200.2,90.2,200.2z"/>
				</g>
				<g>
					<path class="st1" d="M198.6,116.5l-2.3,6.3c2.2,2.1,3,5.3,1.9,8.2c-1.5,4-5.9,6-9.9,4.6s-6-5.9-4.6-9.9c1.1-3,3.8-4.9,6.8-5
						l2.3-6.3c-6.4-0.9-12.8,2.8-15.1,9.1c-2.1,5.6-0.3,11.8,4,15.5l-5.1-1.8l-0.5,0.8c-5.2,8.1-14.3,13.2-23.9,13.2
						c-0.8-3.2-2.8-5.6-5.5-7.4c5.3-1.1,8.4-2.5,8.4-3.9c0-1.7-4-3.2-10.7-4.4c13.8-4.9,19.9-13.6,22.1-25.7h2
						c2.5,0,4.7-1.7,5.3-4.1h0.3c2.7,0,5.2-2,6-4.8l11.2-2.7c1.3,2.5,3.9,4.1,6.8,4.1c4.2,0,7.7-3.4,7.7-7.7c0-4.2-3.4-7.7-7.7-7.7
						c-3,0-5.5,1.7-6.8,4.1l-11.1-2.6c-0.8-2.9-3.3-4.8-6-4.8h-0.4c-0.6-2.3-2.8-4.1-5.3-4.1h-3c-2.9-12.7-8.5-27.6-15.6-40.5
						c-7.4-13.5-22.8-36.2-42.1-36.2c-19.3,0-34.7,22.7-42.1,36.2C58.6,52,53,66.9,50.1,79.6h-1.8c-2.5,0-4.7,1.7-5.3,4.1h-0.4
						c-2.8,0-5.2,2-6,4.8l-11.1,2.6c-1.3-2.5-3.9-4.1-6.8-4.1c-4.2,0-7.7,3.4-7.7,7.7c0,4.2,3.4,7.7,7.7,7.7c3,0,5.5-1.7,6.8-4.1
						l11.2,2.7c0.9,2.9,3.3,4.8,6,4.8H43c0.6,2.3,2.8,4.1,5.3,4.1h0.8c1.3,6.9,4,13.5,9.6,18.5c3.3,3,7.4,5.3,12.6,7.2
						c-6.8,1.2-10.9,2.7-10.9,4.4c0,1.4,3.1,2.8,8.4,3.9c-2.7,1.8-4.6,4.2-5.4,7.4C54,151,45.1,146,40,138l-0.5-0.8l-5.1,1.8
						c4.3-3.7,6.1-9.9,4-15.5c-2.3-6.3-8.7-10-15.1-9.1l2.3,6.3c3,0.2,5.7,2,6.8,5c1.5,4-0.6,8.4-4.6,9.9s-8.4-0.6-9.9-4.6
						c-1.1-3-0.2-6.2,1.9-8.2l-2.3-6.3c-5.5,3.5-8,10.4-5.6,16.7c2,5.4,7,8.9,12.5,9.2l-5.6,1.9l0.6,1.2
						c8.4,16.6,25.9,27.3,44.5,27.3h0c1.2,7.7,3.7,16.1,9,23c-13,17-18.8,35.8-17.5,57.5H38.8c-2,0-3.6,1.6-3.6,3.6v2.1h45.2v-2.1
						c0-1.9-1.5-3.5-3.4-3.6c-1.2-17.2,3.1-31.6,13.6-45.1l0.1-0.1c4.8,1.5,10.4,2.4,17,2.4c6.6,0,12.2-0.9,17-2.4l0.1,0.1
						c10.5,13.5,14.8,27.9,13.6,45.1c-1.9,0.1-3.4,1.7-3.4,3.6v2.1h45.2v-2.1c0-2-1.6-3.6-3.6-3.6h-16.5
						c1.2-21.7-4.5-40.5-17.5-57.5c5.3-6.9,7.8-15.2,9-23h0.5c18.6,0,36-10.7,44.5-27.3l0.6-1.2l-5.6-1.9c5.4-0.3,10.5-3.8,12.5-9.2
						C206.5,126.9,204,120,198.6,116.5z M28.5,137.4c0.8-0.3,1.6,0.1,1.9,0.9c0.3,0.8-0.1,1.6-0.9,1.9c-0.8,0.3-1.6-0.1-1.9-0.9
						C27.3,138.5,27.7,137.7,28.5,137.4z M177.6,140.1l9.1,3.1c-0.6,1.1-1.1,2.2-1.8,3.2l-9-4.1
						C176.5,141.6,177.1,140.9,177.6,140.1z M181.1,151.5l-8.2-5.9c0.7-0.6,1.3-1.3,1.9-1.9l9.2,4.2
						C183.1,149.1,182.2,150.3,181.1,151.5z M188,149.6l2.7,1.2c-1.2,1.7-2.5,3.2-4,4.7l-2.1-1.6C185.8,152.6,186.9,151.1,188,149.6
						z M162.9,162.2c-1.5,0.4-3,0.8-4.5,1.1l-0.5-10.2c0.9-0.2,1.7-0.4,2.6-0.6L162.9,162.2z M161.9,152c0.8-0.3,1.5-0.6,2.2-0.9
						l5,8.7c-1.5,0.7-3.1,1.3-4.8,1.8L161.9,152z M163.9,166.3l0.6,2.5c-1.9,0.5-3.9,0.9-5.9,1.2l-0.1-2.5
						C160.4,167.2,162.2,166.8,163.9,166.3z M165.5,165.9c2-0.6,4-1.4,5.9-2.2l1.2,2.1c-2.1,1-4.3,1.8-6.5,2.5L165.5,165.9z
						 M172.8,162.9c1.9-1,3.7-2,5.4-3.2c0.6,0.6,1.2,1.2,1.7,1.8c-1.9,1.3-3.9,2.6-5.9,3.6L172.8,162.9z M170.6,159.2l-5-8.7
						c0.7-0.4,1.4-0.7,2.1-1.1c1.3,1.3,4.4,4.3,7.3,7.3C173.6,157.6,172.2,158.4,170.6,159.2z M175.1,154.4
						c-1.7-1.7-3.5-3.5-4.8-4.8c-0.5-0.5-0.9-0.9-1.2-1.2c0.9-0.6,1.7-1.2,2.5-1.8l8.3,6c-1.1,1.1-2.3,2.1-3.6,3L175.1,154.4z
						 M156.2,153.3l0.5,10.3c-1.1,0.2-2.2,0.4-3.4,0.5v-10.5C154.3,153.6,155.3,153.5,156.2,153.3z M123.7,112.5c1.1,0,2,0.9,2,2
						c0,1.1-0.9,2-2,2H91.9c-1.1,0-2-0.9-2-2c0-1.1,0.9-2,2-2H123.7z M198,89.5c2.9,0,5.3,2.4,5.3,5.3c0,2.9-2.4,5.3-5.3,5.3
						c-2.3,0-4.2-1.5-5-3.5l0,0c-0.1-0.3-0.2-0.6-0.2-0.8c0,0,0-0.1,0-0.1c0-0.3-0.1-0.6-0.1-0.8c0-0.3,0-0.6,0.1-0.8
						c0,0,0-0.1,0-0.1c0.1-0.3,0.1-0.6,0.2-0.8l0,0C193.8,90.9,195.7,89.5,198,89.5z M190.4,93.5c0,0.1,0,0.1,0,0.2
						c0,0.1,0,0.2,0,0.3c0,0.2,0,0.5,0,0.7c0,0.2,0,0.5,0,0.7c0,0.1,0,0.2,0,0.3c0,0.1,0,0.1,0,0.2l-9.9,2.4c0,0,0-0.1,0-0.1
						c0.1-0.6,0.2-1.1,0.2-1.7c0,0,0-0.1,0-0.1c0.2-1.8,0.1-3.6-0.2-5.3c0,0,0,0,0,0L190.4,93.5z M177.8,89.4l0.1,0.5c0,0,0,0,0,0
						c0.7,3.2,0.7,6.5-0.1,9.8c0,0,0,0,0,0l-0.1,0.4c-0.5,1.9-2.1,3.3-3.8,3.3h-0.1V86.1h0.2C175.8,86.1,177.3,87.5,177.8,89.4z
						 M165.1,95.6c0,27.9-8.8,42.1-56.5,42.2v-18.9h15.1c2.4,0,4.4-2,4.4-4.4s-2-4.4-4.4-4.4h-15.1V5.3
						C137.9,6.4,165.1,67.7,165.1,95.6z M18.7,100c-2.9,0-5.3-2.4-5.3-5.3c0-2.9,2.4-5.3,5.3-5.3c2.3,0,4.3,1.5,5,3.5l0,0
						c0.1,0.3,0.2,0.6,0.2,0.8c0,0,0,0.1,0,0.1c0,0.3,0.1,0.6,0.1,0.8c0,0.3,0,0.6-0.1,0.8c0,0,0,0.1,0,0.1
						c-0.1,0.3-0.1,0.6-0.2,0.8l0,0C23,98.5,21,100,18.7,100z M26.3,96c0-0.1,0-0.2,0-0.2c0-0.1,0-0.2,0-0.3c0-0.2,0-0.5,0-0.7
						c0-0.2,0-0.5,0-0.7c0-0.1,0-0.2,0-0.3c0-0.1,0-0.2,0-0.2l9.8-2.3c0,0,0,0,0,0c-0.3,1.7-0.3,3.5-0.2,5.3c0,0,0,0.1,0,0.1
						c0,0.6,0.1,1.1,0.2,1.7c0,0,0,0.1,0,0.1L26.3,96z M39,100.1l-0.1-0.4c-0.8-3.4-0.8-6.7-0.1-9.8l0.1-0.5
						c0.5-1.9,2.1-3.2,3.8-3.2h0.2v17.2h-0.1C41,103.4,39.5,102,39,100.1z M50.5,95.6c0-28,27.2-89.2,56.5-90.3v104.8H91.9
						c-2.4,0-4.4,2-4.4,4.4s2,4.4,4.4,4.4H107v18.9c-23.3-0.1-38.2-3.7-46.6-11.2C53.3,120.3,50.5,111.3,50.5,95.6z M62.7,164.2
						c-1.1-0.2-2.3-0.3-3.4-0.5l0.5-10.3c0.9,0.1,1.9,0.2,2.9,0.3V164.2z M32.1,147.8l9.2-4.2c0.6,0.7,1.2,1.3,1.9,1.9l-8.2,5.9
						C34,150.3,33,149.1,32.1,147.8z M31.6,154l-2.1,1.6c-1.4-1.5-2.7-3.1-4-4.7l2.7-1.2C29.2,151.1,30.3,152.6,31.6,154z
						 M44.5,146.6c0.8,0.7,1.6,1.3,2.5,1.8c-0.3,0.3-0.7,0.7-1.2,1.2c-1.3,1.3-3,3-4.8,4.8l-1.3,1.3c-1.3-0.9-2.5-1.9-3.6-3
						L44.5,146.6z M48.4,149.3c0.7,0.4,1.4,0.8,2.1,1.1l-5,8.7c-1.5-0.8-3-1.6-4.4-2.6C44,153.7,47,150.6,48.4,149.3z M51.9,151.1
						c0.7,0.3,1.5,0.6,2.2,0.9l-2.4,9.7c-1.6-0.5-3.2-1.1-4.8-1.8L51.9,151.1z M43.4,162.9l-1.2,2.1c-2.1-1.1-4-2.3-5.9-3.6
						c0.5-0.5,1.1-1.1,1.7-1.8C39.7,160.9,41.5,162,43.4,162.9z M44.8,163.7c1.9,0.9,3.8,1.6,5.9,2.2l-0.6,2.4
						c-2.2-0.7-4.4-1.5-6.5-2.5L44.8,163.7z M52.2,166.3c1.7,0.5,3.5,0.9,5.4,1.2l-0.1,2.5c-2-0.3-3.9-0.7-5.9-1.2L52.2,166.3z
						 M53.2,162.2l2.4-9.7c0.9,0.2,1.7,0.4,2.6,0.6l-0.5,10.2C56.2,163,54.7,162.6,53.2,162.2z M40.2,142.3l-9,4.1
						c-0.6-1-1.2-2.1-1.8-3.2l9.1-3.1C39,140.9,39.6,141.6,40.2,142.3z M25.4,144.7c0.6,1.2,1.2,2.4,1.9,3.6l-2.8,1.2
						c-0.8-1.2-1.6-2.4-2.3-3.7L25.4,144.7z M30.6,156.7l2.1-1.5c1.2,1.3,2.6,2.5,4,3.6l-1.7,1.7C33.4,159.3,31.9,158,30.6,156.7z
						 M59,170.2l0.1-2.4c1.2,0.2,2.4,0.3,3.6,0.4v2.2C61.5,170.4,60.3,170.3,59,170.2z M72.4,144.5c3.4,0.6,7.5,1,12,1.4
						C79.4,162,79.6,180.8,85,203c-19.7-11-19.7-36.6-19.7-47.9C65.3,150,67.8,146.6,72.4,144.5z M70.6,253.3c0-0.8-0.1-1.5-0.1-2.3
						h4c0,0.7,0.1,1.5,0.1,2.3H70.6z M57.7,243.7l8.3,0.7c-0.1,1.6-0.2,3.3-0.2,5h-8.2C57.6,247.5,57.6,245.6,57.7,243.7z
						 M72.3,218.2c-0.7,1.5-1.3,3.1-1.8,4.6l-8.1-3.1c0.7-1.8,1.4-3.6,2.2-5.3L72.3,218.2z M65.2,213c0.8-1.7,1.6-3.3,2.6-4.9
						l7.4,4.4c-0.8,1.4-1.5,2.8-2.1,4.3L65.2,213z M69.9,224.3c-0.5,1.6-1,3.3-1.4,4.9l-8.4-2.2c0.5-2,1.1-3.9,1.7-5.8L69.9,224.3z
						 M68.1,230.8c-0.4,1.8-0.8,3.6-1.1,5.5l-8.5-1.5c0.3-2.1,0.7-4.1,1.2-6.1L68.1,230.8z M66.7,237.8c-0.2,1.7-0.4,3.3-0.6,5
						l-8.4-0.7c0.1-2,0.3-3.9,0.5-5.8L66.7,237.8z M74.6,243.6l-3.9-0.3c0.1-1.5,0.3-3.1,0.5-4.6l3.7,0.7
						C74.8,240.7,74.7,242.2,74.6,243.6z M70.6,244.9l3.9,0.3c0,1.4,0,2.8,0,4.2h-4C70.5,247.9,70.5,246.4,70.6,244.9z M75.2,237.7
						l-3.7-0.7c0.3-1.7,0.6-3.4,1.1-5.1l3.5,0.9C75.7,234.5,75.5,236.1,75.2,237.7z M73,230.4c0.4-1.5,0.8-3,1.3-4.4l3.4,1.3
						c-0.4,1.3-0.8,2.7-1.2,4.1L73,230.4z M74.8,224.5c0.5-1.4,1.1-2.8,1.7-4.2l3.3,1.6c-0.6,1.3-1.1,2.6-1.5,3.9L74.8,224.5z
						 M77.1,218.8c0.6-1.3,1.2-2.6,1.9-3.9l3.2,1.9c-0.7,1.2-1.3,2.4-1.8,3.6L77.1,218.8z M79.8,213.4c0.7-1.4,1.5-2.7,2.4-4.1
						l3.1,2.3c-0.8,1.2-1.6,2.5-2.3,3.7L79.8,213.4z M75.9,211l-7.3-4.4c1-1.7,2-3.3,3.1-4.9l6.9,5C77.6,208.1,76.7,209.6,75.9,211z
						 M72.6,200.4c0.5-0.7,1-1.5,1.6-2.2c2,2.4,4.1,4.2,6.2,5.7c-0.3,0.5-0.7,0.9-1,1.4L72.6,200.4z M57.7,251h8.2
						c0,0.8,0,1.5,0,2.3h-8.1C57.8,252.6,57.7,251.8,57.7,251z M86.2,210.3L83,208c0.4-0.6,0.7-1.1,1.1-1.7c1.5,0.8,2.7,1.4,3.7,1.8
						C87.3,208.8,86.7,209.5,86.2,210.3z M157.9,249.4h-8.2c0-1.7-0.1-3.3-0.2-5l8.3-0.7C158,245.6,158,247.5,157.9,249.4z
						 M136.5,214.8c0.7,1.3,1.3,2.6,1.9,3.9l-3.3,1.6c-0.6-1.2-1.2-2.4-1.8-3.6L136.5,214.8z M132.6,215.4c-0.7-1.3-1.5-2.5-2.3-3.7
						l3.1-2.3c0.8,1.4,1.6,2.7,2.4,4.1L132.6,215.4z M139.1,220.2c0.6,1.4,1.1,2.8,1.7,4.2l-3.4,1.3c-0.5-1.3-1-2.6-1.5-3.9
						L139.1,220.2z M141.3,226c0.5,1.5,0.9,2.9,1.3,4.4l-3.5,0.9c-0.3-1.4-0.7-2.7-1.2-4.1L141.3,226z M143,231.9
						c0.4,1.7,0.8,3.4,1.1,5.1l-3.7,0.7c-0.2-1.6-0.5-3.3-0.9-4.9L143,231.9z M140.6,239.3l3.7-0.7c0.2,1.5,0.4,3.1,0.5,4.6
						l-3.9,0.3C140.9,242.2,140.8,240.7,140.6,239.3z M140.9,253.3c0.1-0.8,0.1-1.5,0.1-2.3h4c0,0.8,0,1.5-0.1,2.3H140.9z
						 M141.1,249.4c0-1.4,0-2.8,0-4.2l3.9-0.3c0.1,1.5,0.1,3,0.1,4.6H141.1z M149.4,242.9c-0.1-1.7-0.3-3.4-0.6-5l8.4-1.5
						c0.2,1.9,0.4,3.8,0.5,5.8L149.4,242.9z M157.1,234.8l-8.5,1.5c-0.3-1.8-0.7-3.7-1.1-5.5l8.4-2.2
						C156.4,230.6,156.8,232.7,157.1,234.8z M147.1,229.2c-0.4-1.7-0.9-3.3-1.4-4.9l8.1-3.1c0.7,1.9,1.2,3.9,1.7,5.8L147.1,229.2z
						 M145.1,222.8c-0.6-1.6-1.2-3.1-1.8-4.6l7.8-3.8c0.8,1.8,1.5,3.5,2.2,5.3L145.1,222.8z M142.7,216.7c-0.7-1.4-1.4-2.9-2.1-4.3
						l7.4-4.4c0.9,1.6,1.8,3.3,2.6,4.9L142.7,216.7z M139.7,211c-0.8-1.5-1.7-2.9-2.7-4.4l6.9-5c1.1,1.6,2.1,3.3,3.1,4.9L139.7,211z
						 M136.2,205.3c-0.3-0.5-0.7-0.9-1-1.4c2.1-1.5,4.3-3.4,6.2-5.7c0.5,0.7,1.1,1.5,1.6,2.2L136.2,205.3z M131.4,206.3
						c0.4,0.6,0.8,1.1,1.1,1.7l-3.2,2.3c-0.5-0.8-1-1.5-1.6-2.2C128.7,207.7,130,207.1,131.4,206.3z M149.7,253.3c0-0.8,0-1.5,0-2.3
						h8.2c0,0.8-0.1,1.5-0.1,2.3H149.7z M107.8,208.1c-8.6,0-15.4-1.6-20.9-4.2c-5.7-22.7-6-41.7-0.9-57.9
						c6.5,0.5,13.9,0.8,21.8,0.8c14.1,0,26.7-0.9,35.4-2.3c4.5,2.2,7.1,5.5,7.1,10.6C150.3,169.6,150.3,208.1,107.8,208.1z
						 M153.4,168.2c1.2-0.1,2.4-0.3,3.6-0.4l0.1,2.4c-1.2,0.1-2.5,0.2-3.7,0.3V168.2z M181.2,160.5l-1.7-1.7c1.4-1.1,2.8-2.3,4-3.6
						l2.1,1.5C184.2,158,182.7,159.3,181.2,160.5z M191.6,149.5l-2.8-1.2c0.7-1.1,1.3-2.3,1.9-3.6l3.1,1.1
						C193.2,147,192.4,148.3,191.6,149.5z M185.7,138.3c0.3-0.8,1.1-1.2,1.9-0.9c0.8,0.3,1.2,1.1,0.9,1.9c-0.3,0.8-1.1,1.2-1.9,0.9
						C185.8,139.9,185.5,139,185.7,138.3z"/>
				</g>
			</g>
			<path class="st1" d="M200,114.3l-2.7-1.7l-4,10.9l1.2,1.2c1.5,1.4,2,3.5,1.3,5.4c-0.7,2-2.7,3.3-4.8,3.3c-0.6,0-1.2-0.1-1.7-0.3
				c-1.3-0.5-2.3-1.4-2.9-2.6c-0.6-1.2-0.6-2.6-0.2-3.9c0.7-1.9,2.5-3.2,4.5-3.3l1.7-0.1l4-10.9l-3.2-0.4c-0.8-0.1-1.5-0.2-2.3-0.2
				c-7,0-13.3,4.4-15.7,10.9c-1.4,3.8-1.3,8,0.1,11.7l-1.5,2.3c-4.4,6.9-11.8,11.3-19.9,11.9c-0.5-1.2-1.2-2.3-2-3.4
				c3.3-1.1,5.7-2.6,5.7-5.2c0-2.2-1.6-3.8-5.3-5.1c8.6-4.8,13.9-12.1,16.2-22.4c2.9-0.1,5.6-1.7,6.9-4.2c2.8-0.5,5.1-2.4,6.4-5.1
				l8.1-1.9c1.9,2.4,4.8,3.8,8,3.8c5.7,0,10.3-4.6,10.3-10.3c0-5.7-4.6-10.3-10.3-10.3c-3.1,0-6,1.4-8,3.8l-8-1.9
				c-1.3-2.7-3.7-4.6-6.6-5.1c-1.4-2.5-4.1-4.2-7.1-4.2h-0.9c-3.1-12.8-8.6-27-15.3-39.2c-7.7-14-23.7-37.6-44.4-37.6
				c-20.7,0-36.7,23.6-44.4,37.6C56.7,50.1,51.2,64.2,48.1,77c-2.9,0.1-5.5,1.7-6.8,4.2c-2.8,0.5-5.3,2.4-6.5,5.1l-8,1.9
				c-1.9-2.4-4.8-3.8-8-3.8c-5.7,0-10.3,4.6-10.3,10.3c0,5.7,4.6,10.3,10.3,10.3c3.1,0,6-1.4,8-3.8l8.1,1.9c1.3,2.7,3.7,4.5,6.4,5.1
				c1.2,2.2,3.3,3.7,5.8,4.1c1.7,7.6,5,13.5,10,18c1.9,1.7,3.9,3.2,6.3,4.5c-3.8,1.3-5.4,2.9-5.4,5.1c0,2.6,2.4,4.1,5.7,5.2
				c-0.8,1-1.5,2.1-2,3.3c-7.8-0.8-15.1-5.2-19.4-11.9l-1.5-2.3c1.4-3.7,1.5-7.9,0.1-11.7c-2.4-6.5-8.7-10.9-15.7-10.9
				c-0.8,0-1.5,0.1-2.3,0.2l-3.2,0.4l4,10.9l1.7,0.1c2,0.1,3.8,1.4,4.5,3.3c1,2.6-0.4,5.6-3,6.5c-0.6,0.2-1.2,0.3-1.7,0.3
				c-2.1,0-4-1.3-4.8-3.3c-0.7-1.9-0.2-4,1.3-5.4l1.2-1.2l-4-10.9l-2.7,1.7c-6.6,4.2-9.4,12.5-6.7,19.8c1.3,3.5,3.7,6.4,6.8,8.4
				l-1.1,0.4l2,3.9c8.6,16.8,25.9,27.8,44.6,28.7c1.5,8,4.1,14.9,7.9,20.4c-12.1,16.4-17.7,34.4-17,54.9H38.8
				c-3.4,0-6.2,2.8-6.2,6.2v4.7h50.5v-4.7c0-2.4-1.4-4.6-3.5-5.6c-0.7-15.2,3.2-28,12.2-40.2c4.8,1.3,10.2,2,16,2
				c5.8,0,11.2-0.7,16-2c9,12.1,12.9,25,12.2,40.2c-2.1,1-3.5,3.1-3.5,5.6v4.7H183v-4.7c0-3.4-2.8-6.2-6.2-6.2h-13.8
				c0.6-20.5-5-38.5-17-54.9c3.8-5.5,6.4-12.3,7.9-20.3c18.9-0.6,36.5-11.7,45.1-28.7l2-3.9l-1.1-0.4c3.1-1.9,5.5-4.8,6.8-8.4
				C209.3,126.8,206.5,118.5,200,114.3z M203,132.8c-1.8,4.8-6.2,8.1-11.3,8.4l-0.4,2.5l4.1,1.4c-8.2,16.1-25.2,26.5-43.3,26.5h-1.7
				l-0.2,1.1c-1.4,9.1-4.3,16.7-8.7,22.4l-0.6,0.8l0.6,0.8c12.8,16.8,18.5,35.3,17.3,56.6l-0.1,1.4h17.9c1.3,0,2.3,1,2.3,2.3v0.8
				h-42.6v-0.8c0-1.2,0.9-2.2,2.2-2.3l1.1-0.1l0.1-1.1c1.2-17.6-3.2-32.2-13.9-46l-0.6-0.7l-0.9,0.2c-4.9,1.6-10.5,2.3-16.6,2.3
				c-6.2,0-11.7-0.8-16.6-2.3l-0.9-0.3l-0.6,0.7c-10.8,13.9-15.2,28.5-13.9,46.1l0.1,1.1l1.1,0.1c1.2,0.1,2.2,1.1,2.2,2.3v0.8H36.5
				v-0.8c0-1.3,1-2.3,2.3-2.3h17.9l-0.1-1.4c-1.2-21.3,4.4-39.9,17.3-56.6l0.6-0.8L74,195c-4.4-5.7-7.3-13.2-8.7-22.4l-0.2-1.1H64
				c-18.1,0-35-10.4-43.3-26.5l4.1-1.4l-0.4-2.5c-5.1-0.3-9.6-3.6-11.3-8.4c-1.9-5.1-0.3-10.8,3.8-14.2l1.4,3.9
				c-2.1,2.5-2.8,5.9-1.6,9c1.3,3.5,4.7,5.9,8.4,5.9c1.1,0,2.1-0.2,3.1-0.6c2.3-0.8,4-2.5,5.1-4.7c1-2.2,1.1-4.6,0.3-6.9
				c-1.1-3.1-3.9-5.3-7.1-5.8l-1.4-3.9c0,0,0.1,0,0.1,0c5.3,0,10.2,3.4,12,8.4c1.8,4.9,0.4,10.6-3.6,14.1l1.3,2.2l4.1-1.4
				c5.3,8.3,14.6,13.5,24.4,13.7l1,0l0.3-1c0.7-2.7,2.3-4.9,4.9-6.6l2.6-1.7l-3-0.6c-5.7-1.2-7-2.3-7.3-2.6c0.3-0.3,1.9-1.7,9.8-3.1
				l4.9-0.9l-4.7-1.7c-5-1.8-9-4-12.1-6.9c-4.8-4.3-7.8-10.1-9.2-17.8l-0.2-1.1h-1.9c-1.9,0-3.5-1.3-4-3.1l-0.3-1h-1.3
				c-2.2,0-4.1-1.6-4.8-3.9l-0.2-0.7l-12.9-3.1l-0.5,0.9c-1.1,2.1-3.3,3.4-5.7,3.4c-3.5,0-6.4-2.9-6.4-6.4c0-3.5,2.9-6.4,6.4-6.4
				c2.4,0,4.5,1.3,5.7,3.4l0.5,0.9l12.8-3.1l0.2-0.7c0.7-2.3,2.6-3.9,4.8-3.9H44l0.3-1c0.5-1.8,2.1-3.1,4-3.1h2.8l0.2-1
				c2.9-13,8.5-27.6,15.4-40.2c7.3-13.3,22.3-35.6,41-35.6s33.7,22.3,41,35.6c6.9,12.5,12.5,27.2,15.4,40.2l0.2,1h4
				c1.9,0,3.5,1.3,4,3.1l0.3,1h1.4c2.2,0,4.1,1.6,4.8,3.9l0.2,0.7l12.8,3.1l0.5-0.9c1.1-2.1,3.3-3.4,5.7-3.4c3.5,0,6.4,2.9,6.4,6.4
				c0,3.5-2.9,6.4-6.4,6.4c-2.4,0-4.5-1.3-5.7-3.4l-0.5-0.9L179,99.9l-0.2,0.7c-0.7,2.3-2.6,3.9-4.8,3.9h-1.3l-0.3,1
				c-0.5,1.8-2.1,3.1-4,3.1h-3.1l-0.2,1.1c-2.3,12.7-8.9,20.3-21.2,24.7l-4.7,1.7l4.9,0.9c7.7,1.4,9.3,2.7,9.6,3.1
				c-0.3,0.3-1.5,1.4-7.3,2.6l-3,0.6l2.6,1.7c2.6,1.7,4.2,3.9,4.9,6.7l0.3,1l1,0c10,0,19.5-5.3,25-13.7l4.1,1.4l1.3-2.2
				c-4-3.5-5.4-9.1-3.6-14.1c1.8-5,6.7-8.4,12-8.4c0,0,0.1,0,0.1,0l-1.4,3.9c-3.2,0.5-6,2.7-7.1,5.8c-1.7,4.7,0.7,9.8,5.3,11.5
				c1,0.4,2,0.6,3.1,0.6c3.8,0,7.1-2.4,8.4-5.9c1.1-3.1,0.5-6.5-1.6-9l1.4-3.9C203.2,122,204.8,127.7,203,132.8z"/>
			<path class="st1" d="M107.8,156.2v24.3h24.3v-24.3H107.8z M128.2,160.8l-5.7,5.8l3.6,1.6c0.4,0.2,0.4,0.7,0.1,0.9l-12.8,8.2
				c-0.7,0.4-1.4-0.4-0.9-1l5.5-6.2l-4.6-0.9c-0.5-0.1-0.6-0.7-0.2-1l13.8-9C128,158.6,129.1,160,128.2,160.8z"/>
		</g>
	</g>
</g>
</svg>
