<svg width="68" height="43" viewBox="0 0 68 43" fill="none" xmlns="http://www.w3.org/2000/svg">
<g filter="url(#filter0_d)">
<path d="M6.20382 25.2857C3.86007 25.2857 3.86007 21.7143 6.20382 21.7143C8.54757 21.7143 8.54757 25.2857 6.20382 25.2857ZM47.3032 23.6674C49.34 26.2902 47.6101 29.7779 44.2898 29.7779C43.9549 29.7779 43.3411 29.75 43.09 29.4989C43.1737 30.4196 42.3366 31.5915 41.6949 32.1775C40.7183 33.0982 39.4907 33.5167 38.1514 33.4051C37.5096 35.5536 35.0822 36.7254 32.9895 36C32.0967 36.8929 30.7574 37.3114 29.5018 37.3114C27.0744 37.3114 24.8701 35.8605 23.1681 34.2143L14.8813 26.067C13.9047 25.1183 12.7886 25.2857 11.561 25.2857V10.1071H15.8857L20.2942 5.69866C21.4661 4.52678 23.0565 3.85714 24.7027 3.85714C26.5721 3.85714 28.6648 3.55022 30.3947 4.44308L25.4561 10.1908C23.2797 12.7299 23.2797 16.4129 25.4003 18.9799C28.3857 22.5513 33.8824 22.635 36.9516 19.1473L40.4393 15.2411C42.9505 17.8638 45.0989 20.7935 47.3032 23.6674ZM51.7395 25.2857C51.5721 23.8348 50.9304 22.4955 50.0654 21.3795C48.6982 19.6217 47.359 17.808 45.9639 16.0781C44.9315 14.8504 43.7875 13.6507 42.7273 12.423C43.3132 10.6094 40.9694 9.27009 39.686 10.6931L34.3009 16.7757C32.6547 18.6172 29.725 18.5893 28.1346 16.692C27.1302 15.4643 27.1302 13.7344 28.1625 12.5067L33.994 5.72656C34.9985 4.55469 36.5052 3.85714 38.0677 3.85714H42.7273C44.513 3.85714 46.2708 4.63839 47.4427 5.97768L51.8232 11H54.4181V25.2857H51.7395ZM59.7753 25.2857C57.4315 25.2857 57.4315 21.7143 59.7753 21.7143C62.119 21.7143 62.119 25.2857 59.7753 25.2857ZM65.1324 9.21428C65.1324 8.23772 64.3232 7.42857 63.3467 7.42857H53.4416C50.2328 3.74553 48.0286 0.285713 42.7273 0.285713H38.0677C36.254 0.285713 34.4962 0.843747 33.0174 1.84821C31.5386 0.843747 29.7808 0.285713 27.9672 0.285713H24.7027C19.8478 0.285713 17.6157 3.29911 14.379 6.53571H2.63239C1.65583 6.53571 0.84668 7.34486 0.84668 8.32143V27.0714C0.84668 28.048 1.65583 28.8571 2.63239 28.8571H12.6212L20.629 36.7254C24.061 40.1016 29.2507 42.3616 33.8545 39.7667C36.3378 39.9342 38.821 38.7623 40.3556 36.8092C42.4203 36.3627 44.2619 35.0234 45.4616 33.2656C48.0286 32.9029 50.2328 31.2846 51.2373 28.8571H63.3467C64.3232 28.8571 65.1324 28.048 65.1324 27.0714V9.21428Z" fill="#F3C700"/>
</g>
<defs>
<filter id="filter0_d" x="0.84668" y="0.285767" width="66.2857" height="42.6066" filterUnits="userSpaceOnUse" color-interpolation-filters="sRGB">
<feFlood flood-opacity="0" result="BackgroundImageFix"/>
<feColorMatrix in="SourceAlpha" type="matrix" values="0 0 0 0 0 0 0 0 0 0 0 0 0 0 0 0 0 0 127 0"/>
<feOffset dx="2" dy="2"/>
<feColorMatrix type="matrix" values="0 0 0 0 0.580392 0 0 0 0 0.270588 0 0 0 0 0.792157 0 0 0 1 0"/>
<feBlend mode="normal" in2="BackgroundImageFix" result="effect1_dropShadow"/>
<feBlend mode="normal" in="SourceGraphic" in2="effect1_dropShadow" result="shape"/>
</filter>
</defs>
</svg>
