<svg width="52" height="46" viewBox="0 0 52 46" fill="none" xmlns="http://www.w3.org/2000/svg">
<g filter="url(#filter0_d)">
<path d="M25 43.5714C25.4464 43.5714 25.8929 43.404 26.2277 43.0692L43.6105 26.3281C43.8616 26.077 50 20.4687 50 13.7723C50 5.5971 45.0056 0.714284 36.6629 0.714284C31.7801 0.714284 27.2042 4.56473 25 6.74107C22.7958 4.56473 18.2199 0.714284 13.3371 0.714284C4.99442 0.714284 0 5.5971 0 13.7723C0 20.4687 6.13839 26.077 6.36161 26.2723L23.7723 43.0692C24.1071 43.404 24.5536 43.5714 25 43.5714Z" fill="#F3C700"/>
</g>
<defs>
<filter id="filter0_d" x="0" y="0.714233" width="52" height="44.8571" filterUnits="userSpaceOnUse" color-interpolation-filters="sRGB">
<feFlood flood-opacity="0" result="BackgroundImageFix"/>
<feColorMatrix in="SourceAlpha" type="matrix" values="0 0 0 0 0 0 0 0 0 0 0 0 0 0 0 0 0 0 127 0"/>
<feOffset dx="2" dy="2"/>
<feColorMatrix type="matrix" values="0 0 0 0 0.580392 0 0 0 0 0.270588 0 0 0 0 0.792157 0 0 0 1 0"/>
<feBlend mode="normal" in2="BackgroundImageFix" result="effect1_dropShadow"/>
<feBlend mode="normal" in="SourceGraphic" in2="effect1_dropShadow" result="shape"/>
</filter>
</defs>
</svg>
