<svg width="18" height="17" viewBox="0 0 18 17" fill="none" xmlns="http://www.w3.org/2000/svg">
<path d="M4.72092 5.71259H1.03788V16.7729H4.72092V5.71259ZM4.95529 2.29742C4.94413 1.21483 4.16288 0.388933 2.90172 0.388933C1.65172 0.388933 0.82583 1.21483 0.82583 2.29742C0.82583 3.35768 1.61824 4.2059 2.85708 4.2059H2.8794C4.16288 4.2059 4.96646 3.35768 4.95529 2.29742ZM17.9687 10.4336C17.9687 7.04072 16.1607 5.4559 13.7388 5.4559C11.7522 5.4559 10.8816 6.56081 10.4017 7.31974H10.424V5.71259H6.75217C6.75217 5.71259 6.79681 6.75054 6.75217 16.7729H10.424V10.601C10.424 10.2662 10.4575 9.9425 10.5468 9.69697C10.8147 9.03849 11.4173 8.35768 12.433 8.35768C13.7611 8.35768 14.2968 9.37331 14.2968 10.8577V16.7729H17.9687V10.4336Z" fill="white"/>
</svg>
