<svg width="59" height="55" viewBox="0 0 59 55" fill="none" xmlns="http://www.w3.org/2000/svg">
<path fill-rule="evenodd" clip-rule="evenodd" d="M29.8714 0.071767C29.633 -0.0235974 29.367 -0.0235966 29.1286 0.0717679L1.37247 11.1742C0.534329 11.5095 0.53433 12.6959 1.37248 13.0312L29.1286 24.1336C29.367 24.229 29.633 24.229 29.8714 24.1336L52.641 15.0258V34.3517C51.9129 34.7728 51.4231 35.56 51.4231 36.4617C51.4231 37.1892 51.742 37.8423 52.2477 38.2886C51.742 38.7349 51.4231 39.388 51.4231 40.1155V43.7694H56.2949V40.1155C56.2949 39.388 55.9759 38.7349 55.4702 38.2886C55.9759 37.8423 56.2949 37.1892 56.2949 36.4617C56.2949 35.56 55.805 34.7728 55.0769 34.3517V14.0514L57.6275 13.0312C58.4657 12.6959 58.4657 11.5095 57.6275 11.1742L29.8714 0.071767ZM11.2308 26.7181V19.0796L28.4751 26.5759C28.9837 26.797 29.5612 26.797 30.0698 26.5759L47.7692 18.8817V26.7181C47.7692 30.754 39.5898 34.0258 29.5 34.0258C19.4102 34.0258 11.2308 30.754 11.2308 26.7181ZM27.0641 43.7694V37.6796H31.9359V43.7694H27.0641ZM22.1923 51.0771C22.1923 51.0771 27.0641 49.1579 27.0641 44.9873H31.9359C31.9359 49.1579 36.8077 51.0771 36.8077 51.0771L33.7628 51.686L33.1538 54.7095C33.1538 54.7095 29.5 50.5511 29.5 47.4232C29.5 50.5511 25.8462 54.7095 25.8462 54.7095L25.2372 51.686L22.1923 51.0771ZM19.4662 11.6894C19.4662 10.1788 19.5108 9.16785 19.6 8.6564C19.6952 8.14496 19.8409 7.73164 20.0371 7.41645C20.3523 6.8158 20.8578 6.28057 21.5536 5.81076C22.2375 5.33499 23.0909 5.09117 24.1138 5.07927C25.1486 5.09117 26.0109 5.33499 26.7007 5.81076C27.3847 6.28057 27.8782 6.8158 28.1815 7.41645C28.4016 7.73164 28.5532 8.14496 28.6365 8.6564C28.7138 9.16785 28.7525 10.1788 28.7525 11.6894C28.7525 13.1761 28.7138 14.1812 28.6365 14.7045C28.5532 15.2279 28.4016 15.6471 28.1815 15.9623C27.8782 16.563 27.3847 17.0922 26.7007 17.5502C26.0109 18.0259 25.1486 18.2757 24.1138 18.2995C23.0909 18.2757 22.2375 18.0259 21.5536 17.5502C20.8578 17.0922 20.3523 16.563 20.0371 15.9623C19.942 15.7661 19.8557 15.5787 19.7784 15.4003C19.7071 15.216 19.6476 14.984 19.6 14.7045C19.5108 14.1812 19.4662 13.1761 19.4662 11.6894ZM21.4466 11.6894C21.4466 12.968 21.4941 13.8333 21.5893 14.2853C21.6725 14.7372 21.842 15.103 22.0978 15.3825C22.3059 15.6501 22.5795 15.8672 22.9184 16.0337C23.2515 16.2299 23.6499 16.3281 24.1138 16.3281C24.5836 16.3281 24.991 16.2299 25.3359 16.0337C25.663 15.8672 25.9247 15.6501 26.1209 15.3825C26.3766 15.103 26.5521 14.7372 26.6472 14.2853C26.7364 13.8333 26.781 12.968 26.781 11.6894C26.781 10.4108 26.7364 9.53954 26.6472 9.07567C26.5521 8.63559 26.3766 8.27579 26.1209 7.99628C25.9247 7.72867 25.663 7.50566 25.3359 7.32724C24.991 7.15478 24.5836 7.0626 24.1138 7.05071C23.6499 7.0626 23.2515 7.15478 22.9184 7.32724C22.5795 7.50566 22.3059 7.72867 22.0978 7.99628C21.842 8.27579 21.6725 8.63559 21.5893 9.07567C21.4941 9.53954 21.4466 10.4108 21.4466 11.6894ZM34.9076 16.3281C33.4803 16.3162 32.2493 15.885 31.2145 15.0346L29.9211 16.5154C31.3067 17.7048 32.9629 18.2995 34.8898 18.2995C37.8692 18.2638 39.3917 17.0031 39.4571 14.5172C39.4571 13.5954 39.1687 12.7866 38.5918 12.0908C38.009 11.3831 37.108 10.946 35.8889 10.7795C35.2704 10.7022 34.7827 10.6338 34.4259 10.5743C33.7836 10.4554 33.3168 10.2413 33.0254 9.93204C32.734 9.62874 32.5883 9.28976 32.5883 8.9151C32.6002 8.29066 32.8172 7.82085 33.2395 7.50565C33.6439 7.20236 34.1494 7.05071 34.756 7.05071C35.9275 7.0745 37.001 7.40753 37.9763 8.04981L39.0735 6.42627C37.8782 5.56395 36.4717 5.11495 34.8541 5.07927C33.5101 5.09117 32.4723 5.44204 31.7408 6.13189C30.9856 6.8277 30.6079 7.74353 30.6079 8.87941C30.6079 9.825 30.9083 10.6278 31.5089 11.288C32.0917 11.9302 32.9421 12.3436 34.0602 12.5279C34.6846 12.6171 35.2585 12.6974 35.7818 12.7688C36.9237 12.965 37.4886 13.5478 37.4767 14.5172C37.4529 15.7006 36.5966 16.3043 34.9076 16.3281ZM12.4487 35.2437C12.4487 35.2437 23.4103 37.6796 25.8462 37.6796V43.7694C23.4103 43.7694 12.4487 46.2053 12.4487 46.2053C12.4487 46.2053 11.2308 44.9873 11.2308 41.3335C11.2308 37.6796 12.4487 35.2437 12.4487 35.2437ZM46.5513 35.2437C46.5513 35.2437 35.5897 37.6796 33.1538 37.6796V43.7694C35.5897 43.7694 46.5513 46.2053 46.5513 46.2053C46.5513 46.2053 47.7692 44.9873 47.7692 41.3335C47.7692 37.6796 46.5513 35.2437 46.5513 35.2437Z" fill="white"/>
</svg>
