<svg width="95" height="88" viewBox="0 0 95 88" fill="none" xmlns="http://www.w3.org/2000/svg">
<path fill-rule="evenodd" clip-rule="evenodd" d="M47.5 88C73.7335 88 95 66.7335 95 40.5C95 23.3688 85.9311 8.35581 72.3322 0H22.6678C9.06894 8.35581 0 23.3688 0 40.5C0 66.7335 21.2665 88 47.5 88Z" fill="#9445CA"/>
<rect x="17.0513" y="11.2693" width="60.8974" height="60.8974" fill="#9445CA"/>
<path fill-rule="evenodd" clip-rule="evenodd" d="M47.8714 15.0718C47.633 14.9764 47.367 14.9764 47.1286 15.0718L19.3725 26.1742C18.5343 26.5095 18.5343 27.6959 19.3725 28.0312L47.1286 39.1336C47.367 39.229 47.633 39.229 47.8714 39.1336L70.641 30.0258V49.3517C69.9129 49.7728 69.4231 50.56 69.4231 51.4617C69.4231 52.1892 69.742 52.8423 70.2477 53.2886C69.742 53.7349 69.4231 54.388 69.4231 55.1155V58.7694H74.2949V55.1155C74.2949 54.388 73.9759 53.7349 73.4702 53.2886C73.9759 52.8423 74.2949 52.1892 74.2949 51.4617C74.2949 50.56 73.805 49.7728 73.0769 49.3517V29.0514L75.6275 28.0312C76.4657 27.6959 76.4657 26.5095 75.6275 26.1742L47.8714 15.0718ZM29.2308 41.7181V34.0796L46.4751 41.5759C46.9837 41.797 47.5612 41.797 48.0698 41.5759L65.7692 33.8817V41.7181C65.7692 45.754 57.5898 49.0258 47.5 49.0258C37.4102 49.0258 29.2308 45.754 29.2308 41.7181ZM45.0641 58.7694V52.6796H49.9359V58.7694H45.0641ZM40.1923 66.0771C40.1923 66.0771 45.0641 64.1579 45.0641 59.9873H49.9359C49.9359 64.1579 54.8077 66.0771 54.8077 66.0771L51.7628 66.686L51.1538 69.7095C51.1538 69.7095 47.5 65.5511 47.5 62.4232C47.5 65.5511 43.8462 69.7095 43.8462 69.7095L43.2372 66.686L40.1923 66.0771ZM37.4662 26.6894C37.4662 25.1788 37.5108 24.1678 37.6 23.6564C37.6952 23.145 37.8409 22.7316 38.0371 22.4164C38.3523 21.8158 38.8578 21.2806 39.5536 20.8108C40.2375 20.335 41.0909 20.0912 42.1138 20.0793C43.1486 20.0912 44.0109 20.335 44.7007 20.8108C45.3847 21.2806 45.8782 21.8158 46.1815 22.4164C46.4016 22.7316 46.5532 23.145 46.6365 23.6564C46.7138 24.1678 46.7525 25.1788 46.7525 26.6894C46.7525 28.1761 46.7138 29.1812 46.6365 29.7045C46.5532 30.2279 46.4016 30.6471 46.1815 30.9623C45.8782 31.563 45.3847 32.0922 44.7007 32.5502C44.0109 33.0259 43.1486 33.2757 42.1138 33.2995C41.0909 33.2757 40.2375 33.0259 39.5536 32.5502C38.8578 32.0922 38.3523 31.563 38.0371 30.9623C37.942 30.7661 37.8557 30.5787 37.7784 30.4003C37.7071 30.216 37.6476 29.984 37.6 29.7045C37.5108 29.1812 37.4662 28.1761 37.4662 26.6894ZM39.4466 26.6894C39.4466 27.968 39.4941 28.8333 39.5893 29.2853C39.6725 29.7372 39.842 30.103 40.0978 30.3825C40.3059 30.6501 40.5795 30.8672 40.9184 31.0337C41.2515 31.2299 41.6499 31.3281 42.1138 31.3281C42.5836 31.3281 42.991 31.2299 43.3359 31.0337C43.663 30.8672 43.9247 30.6501 44.1209 30.3825C44.3766 30.103 44.5521 29.7372 44.6472 29.2853C44.7364 28.8333 44.781 27.968 44.781 26.6894C44.781 25.4108 44.7364 24.5395 44.6472 24.0757C44.5521 23.6356 44.3766 23.2758 44.1209 22.9963C43.9247 22.7287 43.663 22.5057 43.3359 22.3272C42.991 22.1548 42.5836 22.0626 42.1138 22.0507C41.6499 22.0626 41.2515 22.1548 40.9184 22.3272C40.5795 22.5057 40.3059 22.7287 40.0978 22.9963C39.842 23.2758 39.6725 23.6356 39.5893 24.0757C39.4941 24.5395 39.4466 25.4108 39.4466 26.6894ZM52.9076 31.3281C51.4803 31.3162 50.2493 30.885 49.2145 30.0346L47.9211 31.5154C49.3067 32.7048 50.9629 33.2995 52.8898 33.2995C55.8692 33.2638 57.3917 32.0031 57.4571 29.5172C57.4571 28.5954 57.1687 27.7866 56.5918 27.0908C56.009 26.3831 55.108 25.946 53.8889 25.7795C53.2704 25.7022 52.7827 25.6338 52.4259 25.5743C51.7836 25.4554 51.3168 25.2413 51.0254 24.932C50.734 24.6287 50.5883 24.2898 50.5883 23.9151C50.6002 23.2907 50.8172 22.8208 51.2395 22.5057C51.6439 22.2024 52.1494 22.0507 52.756 22.0507C53.9275 22.0745 55.001 22.4075 55.9763 23.0498L57.0735 21.4263C55.8782 20.564 54.4717 20.115 52.8541 20.0793C51.5101 20.0912 50.4723 20.442 49.7408 21.1319C48.9856 21.8277 48.6079 22.7435 48.6079 23.8794C48.6079 24.825 48.9083 25.6278 49.5089 26.288C50.0917 26.9302 50.9421 27.3436 52.0602 27.5279C52.6846 27.6171 53.2585 27.6974 53.7818 27.7688C54.9237 27.965 55.4886 28.5478 55.4767 29.5172C55.4529 30.7006 54.5966 31.3043 52.9076 31.3281ZM30.4487 50.2437C30.4487 50.2437 41.4103 52.6796 43.8462 52.6796V58.7694C41.4103 58.7694 30.4487 61.2053 30.4487 61.2053C30.4487 61.2053 29.2308 59.9873 29.2308 56.3335C29.2308 52.6796 30.4487 50.2437 30.4487 50.2437ZM64.5513 50.2437C64.5513 50.2437 53.5897 52.6796 51.1538 52.6796V58.7694C53.5897 58.7694 64.5513 61.2053 64.5513 61.2053C64.5513 61.2053 65.7692 59.9873 65.7692 56.3335C65.7692 52.6796 64.5513 50.2437 64.5513 50.2437Z" fill="white"/>
</svg>
