<svg width="49" height="49" viewBox="0 0 49 49" fill="none" xmlns="http://www.w3.org/2000/svg">
<g filter="url(#filter0_d)">
<path d="M10.4965 38.2143C10.4965 39.1908 9.68736 40 8.7108 40C7.73424 40 6.92508 39.1908 6.92508 38.2143C6.92508 37.2377 7.73424 36.4286 8.7108 36.4286C9.68736 36.4286 10.4965 37.2377 10.4965 38.2143ZM28.4653 26.4955C24.8101 25.0446 21.8804 22.115 20.4295 18.4598L1.42843 37.4609C0.758789 38.1306 0.368164 39.0513 0.368164 40C0.368164 40.9487 0.758789 41.8694 1.42843 42.5112L4.38602 45.5246C5.05566 46.1663 5.97642 46.5569 6.92508 46.5569C7.87374 46.5569 8.7945 46.1663 9.43624 45.5246L28.4653 26.4955ZM46.155 14.3583C46.155 13.8002 45.8202 13.3817 45.2621 13.3817C44.7041 13.3817 38.2309 17.4554 37.3101 17.9855L31.9251 15V8.75L40.1003 4.0346C40.3514 3.86718 40.5467 3.56027 40.5467 3.25335C40.5467 2.91853 40.3793 2.66741 40.1003 2.4721C38.3983 1.32812 35.7476 0.714284 33.7108 0.714284C26.8191 0.714284 21.2108 6.32254 21.2108 13.2143C21.2108 20.106 26.8191 25.7143 33.7108 25.7143C38.9842 25.7143 43.7554 22.2824 45.5133 17.3158C45.8202 16.423 46.155 15.279 46.155 14.3583Z" fill="#F3C700"/>
</g>
<defs>
<filter id="filter0_d" x="0.368164" y="0.714233" width="47.7868" height="47.8426" filterUnits="userSpaceOnUse" color-interpolation-filters="sRGB">
<feFlood flood-opacity="0" result="BackgroundImageFix"/>
<feColorMatrix in="SourceAlpha" type="matrix" values="0 0 0 0 0 0 0 0 0 0 0 0 0 0 0 0 0 0 127 0"/>
<feOffset dx="2" dy="2"/>
<feColorMatrix type="matrix" values="0 0 0 0 0.580392 0 0 0 0 0.270588 0 0 0 0 0.792157 0 0 0 1 0"/>
<feBlend mode="normal" in2="BackgroundImageFix" result="effect1_dropShadow"/>
<feBlend mode="normal" in="SourceGraphic" in2="effect1_dropShadow" result="shape"/>
</filter>
</defs>
</svg>
